<svg xmlns="http://www.w3.org/2000/svg" xmlns:xlink="http://www.w3.org/1999/xlink" viewBox="0 0 329.76 452.86"><defs><style>.cls-1{fill:url(#New_Gradient_Swatch_copy);}.cls-2{fill:none;}.cls-3{isolation:isolate;}.cls-4{fill:#feeff1;}.cls-5{fill:#c65c64;}.cls-6{fill:#f16686;}.cls-7{fill:#306e53;}.cls-8{clip-path:url(#clip-path);}.cls-9{mix-blend-mode:color-dodge;opacity:0.12;}.cls-10{clip-path:url(#clip-path-2);}.cls-11{mix-blend-mode:lighten;}</style><linearGradient id="New_Gradient_Swatch_copy" x1="187.58" y1="-84.39" x2="187.58" y2="-386.15" gradientUnits="userSpaceOnUse"><stop offset="0.33" stop-color="#c65c64"/><stop offset="0.44" stop-color="#c8616a"/><stop offset="0.59" stop-color="#ce7179"/><stop offset="0.75" stop-color="#d88a94"/><stop offset="0.93" stop-color="#e5adb8"/><stop offset="1" stop-color="#ecbeca"/></linearGradient><clipPath id="clip-path"><path class="cls-1" d="M36.12-268.75c0-.45,0-.67-.08-1.11-.55-7.13-1.19-14.61.31-21.36,3-13.5,13.92-24.48,26.26-30.25a57.17,57.17,0,0,1,23-5.61,69.86,69.86,0,0,1,19.13,2.39,3.85,3.85,0,0,0,3.25-.61,3.07,3.07,0,0,0,1.28-2.75c-.13-1.36-.2-2-.33-3.39-.33-3.28-.71-7.07-.93-9.63a57.32,57.32,0,0,1,3.21-25c2.94-8,12.86-15.53,21.22-16.57,10.37-1.29,21.81,1.67,29.09,9.77,5.76,6.41,10,17.05,11.15,25.5,1.95,14.94,4.06,30.33,3.4,45.37-.61,13.88-2.21,27.74-6.93,41.13-5.94,16.88-20.36,30.18-37,35.45a105.67,105.67,0,0,1-36.44,5.35c-15.41-.3-31.78-5.84-43.34-16.63C43.48-245.07,37.1-256.35,36.12-268.75ZM156.46-370.83c1.4-3.45-3.74-3.93-5.27-3.22S155.06-367.37,156.46-370.83Zm-23-2.66c3.34-2,6.49-1.07,9.77,0a5.57,5.57,0,0,0,3.58.07c.76-.3,3-4.31-2.18-5.35C124.57-382.47,130.84-370.93,133.44-373.49Zm-34.5,58c0,1.08.67,1.55,1.5,1.94.37.17,2.62,0,2.62-1.46s-2.17-1.52-2.93-1.59C99.57-316.66,98.94-316.58,98.94-315.5ZM97.5-280.76a9.62,9.62,0,0,0-2.93,7.41c.14,4.3,2.88,7.22,7.29,8a14.42,14.42,0,0,0,3.08.24h0c6.33-.13,9.76-3.4,9.67-9.22a8.9,8.9,0,0,0-3.06-6.49,10.57,10.57,0,0,0-7.19-2.66h-.1a10.9,10.9,0,0,0-2.15.25,10.1,10.1,0,0,0-2.76,1.05A9.23,9.23,0,0,0,97.5-280.76Zm-5.13-31c2.25,0,3.84-2.63,3.72-4.62a4.63,4.63,0,0,0-4.07-4c-2,0-2.74,2-3.3,3.31S90.8-311.73,92.37-311.76Zm547.89,72.43c-6.21,3.62-12.55,3.57-18.91-.17a24.53,24.53,0,0,1-2.63-1.83,5.12,5.12,0,0,0-4.69-.84,4.36,4.36,0,0,0-3.1,3.3c-.41,2-.82,4.1-1.24,6.15-.11.55-.25,1.1-.4,1.65a15.28,15.28,0,0,0-.64,3.53c-.27,8.56-4,14.24-9.47,20.17a29.11,29.11,0,0,1-20.67,9.87c-5.37.23-10-1.9-15-6.92-6.94-6.94-9.33-14.21-10.86-23-2-11.48-1.54-22.4-.44-34.41.21-2.28.49-4.6.74-6.89l0-.19c.74-3.44,1.44-7.32,2.09-11.54.16-1.05.3-2.16.43-3.39a44.4,44.4,0,0,1,13.14-20.33,28.13,28.13,0,0,1,9.19-5.5c8.45-2.91,18.39,1.58,23.8,7.51a45.73,45.73,0,0,1,5.18,7.3,6.56,6.56,0,0,0,4.52,3,6.74,6.74,0,0,0,5.34-1.25c1.57-1.22,2.86-2.19,4-3.05a22.48,22.48,0,0,1,18-3.81,23.4,23.4,0,0,1,15.64,11.41c0,.07.13.2.25.37,3.59,4.77,4.3,14.2,2,26.54,0,0,0,.09,0,.11-.41,4.28-.72,8-4.07,11.48l-1,1C648-245.34,644.64-241.9,640.26-239.33Zm-48.5-56.21c-1-4.21-6.52-8.52-10.9-8.56-3.34,0-4.79,2-3.44,5.05,1.94,4.41,5.58,6.88,10.23,7.76A3.57,3.57,0,0,0,591.76-295.54Zm45.81,2.09a1.57,1.57,0,0,0-2.47-1.25,14.74,14.74,0,0,0-5,4.11,2.14,2.14,0,0,0,1.75,3.33C634.11-287.18,637.45-290.36,637.57-293.45Zm2.93,5.2c1.79.95,3-.12,3.53-1.64C645.06-292.93,637.43-289.87,640.5-288.25ZM197.85-247.31c-7-9-10.7-20.95-12.92-32.41-1.39-7.22-1.09-13.59-.66-22.4.06-1.17.08-1.75.14-2.92.17-3.6.16-6.81.16-9.91a98.15,98.15,0,0,1,1-17.3c.27-1.64.54-3.73.82-5.95.47-3.67,1-7.83,1.66-10.51a144,144,0,0,1,5.3-16.4c.29-.8.44-1.19.73-2,2.2-6,4.84-9,9.94-13.35,3.13-2.69,8.94-4.6,13-5.24a37.87,37.87,0,0,1,6.39-.46,31.87,31.87,0,0,1,23.65,10.89c4.25,4.67,6.76,10.65,7.47,17.78a104.83,104.83,0,0,1,.32,15.87c-.19,3.56-.69,7.08-1.23,10.8-.07.5-.11.75-.18,1.25a3.27,3.27,0,0,0,1.29,3,4.16,4.16,0,0,0,3.54.74,70.75,70.75,0,0,1,20-2c21.6.86,43.69,15.83,47.82,37.85a59.94,59.94,0,0,1-10.64,46.5c-9,12-24.17,19-38.24,21.2-10.91,1.7-22.51,2.38-33.69.82C226.21-223.85,208.39-233.76,197.85-247.31Zm95.41-67.07a2.25,2.25,0,0,0,2.51-1.54c.34-1.42-1.9-3.48-3.54-3.16a3.87,3.87,0,0,0-2.48,1.9C289.26-316,291.18-314.46,293.26-314.38Zm-26.13-4.71a3.83,3.83,0,0,0,3.3-.42c1.61-1.05,3-1.66,4.94-.83a9.31,9.31,0,0,0,3.82,1c4.77-1.1,1.71-3.83.8-4-3.13-.69-12.88-2.31-14.05,1.25A3.28,3.28,0,0,0,267.13-319.09Zm-19.25,43.72c-.13,5.8,3.32,9.12,9.63,9.26h0a16.08,16.08,0,0,0,3.1-.23c4.42-.8,7.15-3.69,7.32-8a9.72,9.72,0,0,0-2.06-6.49,9.79,9.79,0,0,0-7.41-3.65,10.73,10.73,0,0,0-7.43,2.5A8.91,8.91,0,0,0,247.88-275.37Zm-5.07-85.15a4.29,4.29,0,0,0-2.11,1.83c-.15.27,1,1.75,1.46,1.71C244.11-357,245.69-360.85,242.81-360.52ZM227.87-374c.32,2.29,2.25,2.51,4.17,2.28,3.19-.39,3.65,2,5.14,3.91a15.71,15.71,0,0,0,1.5,2.07c.83.66,2.09,1.27,3,.92a1.81,1.81,0,0,0,1.16-1.93c-.11-3.65-2.13-6.41-5-8.4C236.32-376.14,228.23-379.91,227.87-374Zm203,125.22a7.36,7.36,0,0,1,1.75,7.35c-2.52,8-7.89,14.37-15.94,18.92a80.82,80.82,0,0,1-15.59,7,37.72,37.72,0,0,1-13.3,1.55h-.1c-8.77-.42-19.81-2.87-27.62-7.3a64.45,64.45,0,0,1-18.12-14.72c-6.25-7.56-10-16.05-10.94-24.55a79.61,79.61,0,0,1,.19-13.89c.19-2.6.39-5.3.44-7.95.14-8.29,4-15.79,7.71-22,7.67-12.94,21.45-22.49,36.57-24.06a93.78,93.78,0,0,1,15.24-.52,65.77,65.77,0,0,1,23,5.59c7.54,3.37,13.54,7.73,17.83,12.94,4.47,5.43,7.08,12.24,8,20.79.94,9-.57,15.39-4.86,20.78-2.94,3.69-7,6.17-12.35,7.58a45.35,45.35,0,0,1-23.09-.26,1.88,1.88,0,0,0-2,.58,1.36,1.36,0,0,0,.45,1.95l.1.05c.9.48,1.79,1,2.68,1.47a53.76,53.76,0,0,0,6.25,3.16,31.76,31.76,0,0,0,15.42,2.56A9.86,9.86,0,0,1,430.83-248.74Zm-22.48-66.9c3.06,0,1.83-3.48.14-3.48S405.29-315.64,408.35-315.64ZM387.47-323c0,1.62,1.37,2.21,3.38,2.2,4,0,8.36-.94,11.36,3.12.27.37,2.1.16,2.68-.35a3.67,3.67,0,0,0-1-5.86c-3-1.32-6-2.57-9.11-3.67S387.47-326.21,387.47-323Zm8.9,52.13a7.69,7.69,0,0,0,3.69-2.25h0a9.35,9.35,0,0,0,2.22-5.79,10.25,10.25,0,0,0-1.61-6.66,8.16,8.16,0,0,0-.79-1l-.06-.07a8.55,8.55,0,0,0-5.62-2.35,9.79,9.79,0,0,0-5.69,1.42,8.61,8.61,0,0,0-1.08.74,9.45,9.45,0,0,0-.75.67,9.08,9.08,0,0,0-2.75,6,9.06,9.06,0,0,0,2.31,6.67,10.24,10.24,0,0,0,.75.72,9.9,9.9,0,0,0,1,.76l.64.37a10.27,10.27,0,0,0,4.11,1.13h.09A10.66,10.66,0,0,0,396.37-270.83Zm111.19,21.31c-2.11-1.85-4.62-3.76-6.86-1.44-1.56,1.61-1.77,3.62-2,5.71-.05.45-.1.91-.17,1.37-.37,2.63.36,4.89,1.13,7.29,1.08,3.37,2.2,6.86.43,12.05a1.36,1.36,0,0,0,0,.17c-1.88,13.68-20.43,14.66-21.22,14.69A72.58,72.58,0,0,1,460.68-211c-2.5-.52-5-3.58-6.89-5.81-4.1-4.93-5.1-7.41-6.91-13.24-3.14-10.1-3.28-22.3-2.47-32.76,0-.91.06-1.37.09-2.28.31-8,1.33-15.88,2.45-24a32.82,32.82,0,0,1,6.48-16.26L454-306c3.25-4.14,6.33-8.05,10.86-10.73a18.74,18.74,0,0,1,11.41-2.63c5.52.47,10.58,3.17,14.46,6a27.28,27.28,0,0,1,7.81,9.46,5.25,5.25,0,0,0,3.89,2.6,5.2,5.2,0,0,0,4.39-1.36c7.4-7.15,18.32-9,28.19-8.9a14.91,14.91,0,0,1,3,.47,11.51,11.51,0,0,1,1.13.32,18.35,18.35,0,0,1,6.39,4.27c5.19,5.4,6.92,14,5.16,25.46s-3.42,27-15.06,33.32c-.6.33-1.18.66-1.69,1C525.13-242.56,514.78-243.15,507.56-249.52ZM534.17-296c0,2.73,4.42,1.48,3.84-.27S534.17-298.68,534.17-296Zm-4.38-2c1.46-.65,0-3.36-1-4.35a3.6,3.6,0,0,0-3-.42C524.22-302.16,523.75-294.88,529.79-297.92Zm-45.14-9.55a16,16,0,0,0-10.31-4.24c-1.07-.06-2.72.18-3.13.86-.85,1.39-.26,2.81,1.25,3.87C488-298.56,486.32-305.95,484.65-307.47ZM675.87-166.93l-.21-1.39c-.86-5.75-1.23-8.13,1.34-13.85a60.7,60.7,0,0,0,2.12-5.71,52.94,52.94,0,0,1,2.32-6.11,86.19,86.19,0,0,1,4.66-8.1c.8-1.29,1.63-2.62,2.49-4.06a1,1,0,0,0-.16-1.13l-1.08-1.19c-.92-1-1.9-2.08-2.89-3.14-5.11-5.46-10.43-11.1-13.73-18-.57-1.18-1.12-2.37-1.67-3.55-1-2.11-2-4.28-3.09-6.39-3.11-6-3-12.59-2.91-18.92,0-.89,0-1.79,0-2.69a50.9,50.9,0,0,1,.81-10.93c1.38-6.06,2.8-12.33,5.94-17.65,4-6.8,12.34-10.23,20.87-9a26,26,0,0,1,4.52,1.12c9.87,3.31,18,11.08,19.68,21.69.39,2.55,0,9.3-.32,14.72-.31,5.17-.47,8.15-.24,9.08.65,2.64,2,3.57,3,3.88s2.54.32,4.51-1.28a15.94,15.94,0,0,0,4.47-5.7c1.12-2.48,1.09-4.85,1.06-7.35a23.26,23.26,0,0,1,3.73-14.13c6.1-10,18.25-9.55,27.92-6.33a7.22,7.22,0,0,1,2.43,1.28l.1.08c21.86,15.87,5.51,45.16-5.57,62.77a45.32,45.32,0,0,0-3.21,5.51c-2.22,5.57-5.6,10.63-8.86,15.52-1.11,1.66-2.21,3.31-3.27,5-2.66,4.2-5.73,8.27-8.7,12.22-2.4,3.19-4.87,6.49-7.11,9.86-3.2,4.8-6.31,7-10.24,9.71-1.41,1-2.87,2-4.5,3.27-6,4.57-11.35,6.41-17,5.78C683.53-153.06,677.09-158.62,675.87-166.93Zm72.71-105.51.25.38c3.21,3.88,5.63,2.88,7.59,7.87,4.68,7.58,7.18-.55,6.52-1.45-1.78-4.91-5.55-8.32-9.21-11.77-2.12-2-4.19-2-5.84-.21C746.1-275.67,747.21-274,748.58-272.44Zm-9.85,2.14a5.52,5.52,0,0,0,4.11-2.9c1.18-2-.89-3.12-2.5-2.58-1.44.48-3.28,1.22-3.87,2.4A2.22,2.22,0,0,0,738.73-270.3Zm-47.29-17.91c1.12,1.36,2.69,2.34,3.89,3.64s2.18,3.1,3.54,4.36c5,3.5,5.87-2.05,4.59-5.22s-9.67-12.63-13.33-6.09C689.74-290.92,690.69-289.13,691.44-288.21ZM-249-187.73a50.88,50.88,0,0,1-13-2c-5.25-1.58-8.72-5.27-10.32-11a2.67,2.67,0,0,1,.1-.76,2.75,2.75,0,0,0-1.94-3.66,6.56,6.56,0,0,0-2.79-.15c-3.86.49-9,3.4-14.81,6.68-5.37,3-11.55,6.47-17,8.31-31.05,10.39-61.36-6.29-78.14-32.45A66,66,0,0,1-397.16-261c.06-1.61.08-3.29.12-5a23.11,23.11,0,0,1,1-5c.07.08,2.57.41,2.64.49a47,47,0,0,0,3.77,4,3.26,3.26,0,0,0,3.05.73c1.77-.4,1.48-1.93,2.19-3.87.79-2.12,1.64-3.74,2.55-6,.11-.26,4.15-6.53,4.25-6.8.89,1.9-.25,9,1.7,10.09a72.55,72.55,0,0,1,.62-25.28L-341.89-333c1.48-.39,3-.73,4.64-1a9,9,0,0,1,6.66-5.91l.8-.16c18.76-4.1,39.5-3.08,56.88,5.52a31.41,31.41,0,0,1,16.7,20.49c2.87,11.23-1.78,24.75-14,28a48.23,48.23,0,0,1-18.51,1.1c-1.32-.16-2.64-.36-3.95-.55-4.65-.69-9.48-1.39-14.49-.66,0,0-27.76,13.95-12.69,34.52,4.51,6.16,12.91,8,21.2,5.36,5.35-1.69,7.9-3.64,7.55-5.81-.26-1.65-2.25-2-4.36-2.42s-4.56-.85-5.38-2.51c-2.43-4.87-1.1-9.28,3.59-11.78a47.29,47.29,0,0,1,12.41-4.76,143.73,143.73,0,0,1,34.84-3c8.43.32,14.38,4.48,17.55,12,3.29,7.8,5.16,16.41,6,27,.75,9.41,1.31,19,1.36,28.47a20.34,20.34,0,0,1-7,15.33A24.33,24.33,0,0,1-249-187.73ZM-286.12-325c4.9,1.77,6.4,5.9,7.71,10.19a7,7,0,0,0,7.62,5.15,7.59,7.59,0,0,0,6.81-7c-.44-1.33-.58-2.87-1.37-3.93a38.81,38.81,0,0,0-17-13.09,4.66,4.66,0,0,0-6,2.62A4.43,4.43,0,0,0-286.12-325Zm-15.43-9.66c.06,1.66.83,3.35,3.12,3.31,2.08,0,3.17-1,3.27-3-.06-2.1-1.14-3-3.08-3S-301.62-336.49-301.55-334.62Zm53.78,89.06a4.29,4.29,0,0,0,3.09,2.36,4.73,4.73,0,0,0,3.59-1.54c2.49-3.21-1.9-13.2-3.73-17.21a8,8,0,0,0-8.74-4.79,7.84,7.84,0,0,0-6.37,7.29,7.75,7.75,0,0,0,5.77,7.75C-251-250.71-248.7-249-247.77-245.56ZM-14.5-218.64c-3.46.86-7.22,1.45-10.83,2-1.67.24-3.34.48-5,.77-1.18,0-2.38-.07-3.51-.06-9.44.12-21.56-.71-30.38-4.6-14-6.16-24.29-19.29-29-33.65-2.42-7.38-2-15.34-1.76-22.29.5-12.25,6.16-23.56,14.78-32.12,8-7.94,18.73-12.63,29.58-15a107.16,107.16,0,0,1,16.93-2.41,89.59,89.59,0,0,1,24.95,2.19c16,3.65,30,16.52,34.93,31.39,5.14,15.4,5,28.76-.69,43.93C19.51-232.6,2-222.74-14.5-218.64ZM-20-267.23a9.43,9.43,0,0,0-3.38-6.95,8.92,8.92,0,0,0-1.89-1.17,10.43,10.43,0,0,0-2-.68,11.52,11.52,0,0,0-3.12-.28h0c-5.68.33-9.92,4.62-9.65,9.75a9.45,9.45,0,0,0,1.86,5.5,7.55,7.55,0,0,0,1.11,1.15,8.39,8.39,0,0,0,3,1.51,13.88,13.88,0,0,0,4.56.45h.06C-23.43-258.31-19.69-261.95-20-267.23Zm23.3-38.71a18.5,18.5,0,0,0-4.72-4.78c-4.89-3.23-19.76-12.44-20.93-4-.57,2.7.29,3.87,3.88,4.38,6.59.94,12.73,2.63,17.63,7.5a3.12,3.12,0,0,0,3.05,0C3-303.49,3.73-305.38,3.33-305.94ZM7-301.5c-2.49,0-1.88,3.55-.19,3.81C9.11-297.43,9.51-301.5,7-301.5Zm-228.88,60.44c-4.84-16.79-4.64-35.71,6.32-51,7.48-10.45,19.41-17.25,31.7-20.65,4-1.09,8.09-1.93,11.09-2.51,1.06-.2,2-.38,2.72-.54,11.45-.55,23.46-1.53,34.52,2.1a51.69,51.69,0,0,1,31.08,28.74c5.44,13,6.45,28.07,1.76,41.63a57.44,57.44,0,0,1-41.52,36.89c-19.78,4.35-37.54,2.2-55.61-7.2C-210.22-219-218.64-229.83-221.87-241.06Zm103.49-35.37a3.14,3.14,0,0,0,2.21,2.22c4.61-2.11.82-4.53-.07-4.44S-118.43-277.18-118.38-276.43Zm-31.69-24.84c1,2.29,3,3.73,5.24,3.5,4.36-.47,7.5,1.69,10.8,3.79,1.52,1,3.08,1.86,4.64,2.77a31.25,31.25,0,0,1,4.35,2.9c1.09.93,2.07,1.68,3.07,1.68a2.33,2.33,0,0,0,1.49-.6c1.42-1.16-.75-4.75-1.45-5.83l-6.17-6.67c-8.27-10.49-15.65-9.29-18.52-8.25a5.17,5.17,0,0,0-1,.42,1.57,1.57,0,0,0-.3.2,7.18,7.18,0,0,0-.94.75A4.43,4.43,0,0,0-150.07-301.27Zm-19.66,44.8a10.77,10.77,0,0,0,1,3.79c1.61,3.25,5,4.83,9.61,4.4h.09a14.71,14.71,0,0,0,2-.31c4.91-1.11,7.77-4.5,7.42-9.08a9.88,9.88,0,0,0-2.63-6.14,10.1,10.1,0,0,0-.84-.76,8.7,8.7,0,0,0-1.76-1.11,8.65,8.65,0,0,0-1-.42l-.57-.18a10.49,10.49,0,0,0-1.52-.31l-.21,0a11,11,0,0,0-2,0,11.06,11.06,0,0,0-7.23,3.37A8.76,8.76,0,0,0-169.73-256.47Zm287.34,121.6c-.45,4.86-1.48,11.12-5.59,16.4a13.92,13.92,0,0,1-11.26,5.38A17,17,0,0,1,91.3-116a6.36,6.36,0,0,1-3-4.73,4.21,4.21,0,0,0-.11-.58,1.92,1.92,0,0,0-1.6-1.45l-.29,0a2,2,0,0,0-1.66.94c-3.3,5.55-8.73,8.37-17.09,8.88-1.39.09-2.65.13-3.86.13a31.31,31.31,0,0,1-9.25-1.2c-6-1.81-10.18-5-12.44-9.53-1.51-3-2.77-6.3-4-9.44l0-.07-.24-.63-.24-.61a8.47,8.47,0,0,1-.6-3c0-1.37,0-2.75-.08-4.09a68.39,68.39,0,0,1,.24-10.73c1.11-8.49,4.83-15,11.07-19.47A26.07,26.07,0,0,1,62-176.39c1.45-.08,3-.15,4.57-.15a33.17,33.17,0,0,1,5,.33,15.8,15.8,0,0,1,10.38,5.63,2.93,2.93,0,0,0,2.3,1.1h.23a2.94,2.94,0,0,0,2.31-1.45,13.43,13.43,0,0,1,10.37-7.19,18.65,18.65,0,0,1,2.32-.17,13.16,13.16,0,0,1,10.24,4.85c4,4.49,5.6,10,6.64,14.76A78,78,0,0,1,117.61-134.87ZM70.52-172.71a19.45,19.45,0,0,0,7.7,2.87c1.06-1.38.57-2.26-.43-3.17a9.63,9.63,0,0,0-6.15-2.53c-.63,0-1.62.11-1.87.52C69.27-174.19,69.62-173.34,70.52-172.71Zm14.93,29.16A6.19,6.19,0,0,0,83.53-148a5.93,5.93,0,0,0-4-1.54h-.24a6,6,0,0,0-5.91,6A6,6,0,0,0,75-139.18a5.81,5.81,0,0,0,4.11,1.43h.22A6.53,6.53,0,0,0,84-139.51,5.42,5.42,0,0,0,85.45-143.55ZM9.83-91.33c-.28-1-.4-1.58-.85-3.77l-.07-.38-.08-.36a2.1,2.1,0,0,0-1.3-1.64,2.16,2.16,0,0,0-.81-.14C5-97.62,2.63-96-.8-93.45c-2.12,1.55-4.52,3.32-5.84,3.68a38.78,38.78,0,0,1-10.27,1.38c-15.44,0-28.56-8.46-33.42-21.56-5-13.49-5.21-27.63-.55-38.79a44,44,0,0,1,29.36-25.21,48.69,48.69,0,0,1,11.77-1.34,45.54,45.54,0,0,1,16.34,2.73,35.71,35.71,0,0,1,11,6.72c4.8,4.41,6.18,12.88,3,18.5-1.7,3-4.56,4.71-8.77,5.23a19.73,19.73,0,0,1-2.44.15,28.37,28.37,0,0,1-8.16-1.35c-.81-.24-1.64-.56-2.44-.88a15.48,15.48,0,0,0-5.65-1.42,7.88,7.88,0,0,0-1.2.09c-4.33.64-9.57,3.65-10.75,8-1.23,4.5.16,10.43,2.17,14,1.84,3.24,6.64,5.5,11.68,5.5a16.29,16.29,0,0,0,4.2-.54,2.76,2.76,0,0,0,.62-.3,2.59,2.59,0,0,1,.35-.19,1.58,1.58,0,0,0,1.29-1.52,2.21,2.21,0,0,0-1-2.21c-1.87-1.21-3.92-3-4.23-4.11-.75-2.65.05-4.64,2.25-5.61a28.45,28.45,0,0,1,7.93-2.34,85.94,85.94,0,0,1,9.65-.62,49.48,49.48,0,0,1,8.26.65c4.44.73,7.22,2.94,8.25,6.55A64.52,64.52,0,0,1,35-116.72a123.74,123.74,0,0,1,0,22c-.27,3.08-2.73,6.37-6.27,8.37a15.47,15.47,0,0,1-7.75,2,18.8,18.8,0,0,1-8-1.86A8.86,8.86,0,0,1,9.83-91.33Zm16.86-34.24c0,1,1.2,1.59,2,1.66,2,.15,2-1,2-2.36s-1.66-1.52-2.29-1.39A1.82,1.82,0,0,0,26.69-125.57Zm-11.4-27.56a3.76,3.76,0,0,0,.47,2.9A2.27,2.27,0,0,0,19-151.76C19.5-153.57,18-156.86,15.29-153.13ZM5.77-162c1.42,2.07,2.9,4.08,4.41,6.07a2.63,2.63,0,0,0,3.81.7,5.31,5.31,0,0,0,2.32-4.6c0-3.65-4.86-7.55-8.57-6.78A3,3,0,0,0,5.77-162Zm-23.16-4.28c11.54-2,14,1.09,15.68.09a2.26,2.26,0,0,0,1.08-3.08,3.35,3.35,0,0,0-1.82-2.07,27.53,27.53,0,0,0-10.66-.33,23.44,23.44,0,0,0-5.82,1.94,1.83,1.83,0,0,0-.87,2.69A2.78,2.78,0,0,0-17.39-166.3ZM17-126.21a38.79,38.79,0,0,1,5.09.67c1.52.17,1.82-.12,2.26-1.82.24-1,0-4.62-9-4.45-2.61.44-5.12.84-7.62,1.31a3.36,3.36,0,0,0-1.4.78,2.55,2.55,0,0,0-.53,3.19,2.36,2.36,0,0,0,2.65,1A85.29,85.29,0,0,1,17-126.21ZM369.7-149.83a2.1,2.1,0,0,0-.14,2.76c.41.53.8,1.06,1.14,1.55,1.87,2.72,6.71,6.73,11,10.27l.33.28c2,1.68,4.33,3.59,5.64,4.86a24.36,24.36,0,0,1,5.77,7.85,18.26,18.26,0,0,1,1.26,10.7,25.94,25.94,0,0,1-3.66,9.94,25.41,25.41,0,0,1-5.74,6.07,37,37,0,0,1-10.77,5.31A42.46,42.46,0,0,1,360.72-88c-1,0-2,0-3-.09l-.36,0-2.81-.18-.38,0c-4.09-.25-8.31-.51-12.39-1.09A57.37,57.37,0,0,1,330-92.32a25.7,25.7,0,0,1-9.89-6,16,16,0,0,1-3.81-6.21,12.51,12.51,0,0,1-.21-6.63,15.17,15.17,0,0,1,5.07-8.88,4.84,4.84,0,0,1,3.17-1.24h.25a15.16,15.16,0,0,1,4.66,1.39c.39.17.79.33,1.19.48,2.38,1,4.78,2,6.84,2.92l.35.16.12,0a1.64,1.64,0,0,0,.67.14,3.9,3.9,0,0,0,2-.75,5,5,0,0,0,2.28-4.47c-.26-2.53-2.66-4.82-7.15-6.79-11.5-5-14.65-18.88-14.41-21.32a1.42,1.42,0,0,0,0-.3c-.65-3.58.47-6.83,2.34-10.62s3.85-7.45,6.9-9.93a12,12,0,0,1,3-1.53l.54-.22.54-.22a34.43,34.43,0,0,1,9.84-2.94c1.35-.13,2.71-.31,4-.48,1.79-.23,3.79-.49,5.7-.58s4-.2,6.19-.2a44.91,44.91,0,0,1,4.88.23,122.79,122.79,0,0,1,15.64,2.63,26.4,26.4,0,0,1,10.5,4.83c3,2.45,6.14,7,5.75,11.15a27.47,27.47,0,0,1-1.16,6.61c-.86,2.42-2.84,4.39-5.89,5.84a6.86,6.86,0,0,1-2.94.54,24.08,24.08,0,0,1-11.31-3.5c-1-.63-2-1.28-3.17-2a2.23,2.23,0,0,0-1.17-.33A2.16,2.16,0,0,0,369.7-149.83Zm6.53-16.58c.79.69,1.81,1.11,2.65,1.76s1.58,1.61,2.5,2.23c1.53,1,3,.11,3.06-2.12a3.08,3.08,0,0,0-.57-1.37,14.14,14.14,0,0,0-6.53-3.71.46.46,0,0,0-.31,0c-.67.43-1.62.76-1.89,1.38C375-167.84,375.7-166.88,376.23-166.41ZM310.3-120.28c-1.58,3.17-4.34,3.7-8.18,4.42l-.56.11-.87.17a85.73,85.73,0,0,1-13.19,1.13,63.72,63.72,0,0,1-23.26-4.49c-8.87-3.33-14-9.43-15.68-18.66a37.79,37.79,0,0,1,9.4-32.62,30.8,30.8,0,0,1,19.54-9.46c1.91-.13,3.53-.18,5.1-.18.68,0,1.36,0,2,0A40,40,0,0,1,295.52-178a26,26,0,0,1,17.39,20c.69,3.63,1.08,7.51-.71,11.21-2.1,4.36-6,6.84-11.68,7.37-.76.07-1.57.1-2.46.1-1.5,0-3.1-.1-4.61-.21h-.17a2.2,2.2,0,0,0-2.15,1.64,2.17,2.17,0,0,0,1.22,2.56,28.46,28.46,0,0,0,6.46,1.93c1.68.34,3.66.72,5.67,1,3,.47,5.15,1.8,6.24,3.85C311.91-126.3,311.76-123.21,310.3-120.28Zm-15-48.52c0-.06,4.13,2.13,5.34,4,2.31,4.16,8.15-1-2.87-7.51-1.44-1-2.66-.78-3.45.43C293.42-170.48,294.3-169.6,295.29-168.8Zm-7.7-4.59c.49.5,1.43.55,2.57.94,2.46.4,1.59-2,.5-2.41a4,4,0,0,0-2.61-.76A1.33,1.33,0,0,0,287.59-173.39Zm2.22,27.95a5.22,5.22,0,0,0,1.8-3.78c.1-3.12-2.79-6.61-5.63-6.79h-.35a6.24,6.24,0,0,0-4,1.53,6,6,0,0,0-2.06,4.18,5.34,5.34,0,0,0,1.18,4.13,6.67,6.67,0,0,0,4.64,2.14l.27,0h.24A6,6,0,0,0,289.81-145.44ZM238-160.7c2.25,7.14,2.87,15.17,1.91,24.55l0,.52-.05.52c-.35,3.47-.7,7.06-2.14,10.29-1.62,3.67-5,6.36-10.74,8.47a18.37,18.37,0,0,1-6.39,1.25c-5.52,0-9.89-3.09-12.64-8.94a32.92,32.92,0,0,1-2.56-8.11,2.06,2.06,0,0,0-2-1.7h-.07a2.11,2.11,0,0,0-2.06,1.55,35.81,35.81,0,0,1-3.31,8.36c-2.9,5.18-7.48,7.54-15.29,7.9-.75,0-1.42,0-2.06,0-6,0-9.62-1.64-12.55-5.66-1.47-2-3-5.67-4.55-10.54A2.56,2.56,0,0,0,161-134h-.12a2.53,2.53,0,0,0-2.41,2,35.81,35.81,0,0,1-2.4,7.48,11.75,11.75,0,0,1-7.43,6.73,31.76,31.76,0,0,1-9.09,1.58c-5.55,0-9.3-2.34-11.49-7.17a27.66,27.66,0,0,1-2.25-8.43c-1.17-11.25-.28-22.32,2.44-30.38,1.68-5,4.17-10.48,9.85-13.38a32.37,32.37,0,0,1,14.59-3.55,27.8,27.8,0,0,1,21.41,9.64,39.67,39.67,0,0,1,7.29,12.57,1.13,1.13,0,0,0,1,.74,1.12,1.12,0,0,0,1.06-.73,35.16,35.16,0,0,1,9.66-14.49,27,27,0,0,1,18.3-7,31.89,31.89,0,0,1,4.21.28,31.53,31.53,0,0,1,12.18,3.76C232.67-171.53,236-167.06,238-160.7Zm-72.93-10a9.63,9.63,0,0,0-6.15-2.53c-.64,0-1.62.11-1.87.52-.5.83-.15,1.68.75,2.31a19.45,19.45,0,0,0,7.7,2.87C167.05-167.72,166.07-169.79,165.07-170.7Zm59.12,1.81a7.71,7.71,0,0,0-6.51-5.1c-2,0-2.86,1.18-2.05,3a7.87,7.87,0,0,0,6.1,4.64A2.14,2.14,0,0,0,224.19-168.89Z"/></clipPath><clipPath id="clip-path-2"><path class="cls-2" d="M779.44-272.58c-2.48-7.63-8.29-13.7-17.06-17.89-7.7-5.43-21-4.79-28.34,1-5.88,4.64-8.26,8.44-9.44,14.75a8.25,8.25,0,0,1-.53,1.34,22,22,0,0,1-1.91-6.6c-2.31-17.84-21.72-27.47-38.12-26.27-9.66.71-15.48,7.19-20,13.34a22.92,22.92,0,0,0-1.25,1.94c-4.5-7.84-13.95-16-22.92-17.37s-21.1,2-28.26,7.67l-1.1-1.75c-1.22-1.95-2.46-3.81-3.62-5.63-5.21-8.11-18.43-12.43-27.44-10.26-8.53,2.05-18.77,9.5-23.23,17.41h0a41.75,41.75,0,0,0-6.4-9.2,19.2,19.2,0,0,0-2-1.8,18.68,18.68,0,0,0-8.08-4.54c-11.53-3.24-24.08-1.94-34.26,4.63-.58.38-1.14.77-1.74,1.19h0c-.41-.69-.86-1.35-1.25-2a32.83,32.83,0,0,0-31.7-15.24c-8.4.83-15.5,5-22.28,13.1-1.51,1.81-2.88,3.78-4.21,5.68-.31.45-.63.9-.94,1.36a68.69,68.69,0,0,0-30.68-23.82c-13.1-5-23.8-6.4-37.69-4.86-16.79,1.86-33,14.4-41.48,29.65-.69,1.23-1.35,2.51-2,3.84l-.09.18-.35-.61a66.81,66.81,0,0,0-26-25.4c-8.4-4.59-20.86-7.52-30.48-6.66-2.48.22-5,.21-7.45.24l-1.88,0c-.07-1.63-.14-3.23-.2-4.81-.17-4.29-.34-8.34-.64-12.45-.58-7.89-2.29-14.54-5.29-20.15-7.73-14.47-26.53-22.65-42.51-19.56-9.07,1.75-16.19,5.75-21.74,13a54.72,54.72,0,0,0-9.39,19.95C184.15-354,183-348.76,182-343.7c-.1.47-.19.93-.29,1.39a96.38,96.38,0,0,0-8.85-27.1c-5.11-9.87-14-17.61-25-20-12.06-2.6-25.63-.38-34.37,9.07-10.59,11.44-12.45,25.24-11.54,39.43a48.42,48.42,0,0,0,1,6c.07.38.15.77.22,1.16-15-4.64-29.52-1.15-42.09,5.08-11.86,5.89-22.82,14.84-28.76,28.33-15-23.5-41.28-34.91-68.51-33.25s-51.32,16.9-62.42,42.27c-15.73-23.38-42.4-34.46-69.94-31.72s-51.42,19.86-62,45.69a37.78,37.78,0,0,0-12.88-6.12c-7.13-1.81-13.64-.93-19.93-.06l-2.09.29a27.22,27.22,0,0,0,12.21-9.58c5.41-7.64,5.81-21.25,1.29-29.34-6.15-11-17.85-18.63-30.05-22-.56-.15-1.14-.33-1.72-.5-4.35-1.28-8.85-2.59-13.36-2.44-2.71.09-5.49.11-8.17.12-8.55.06-17.38.15-26,2.71l-46.91,39.91c-.2-.1-11.85,13.41-12.08,13.35-.47-.13-2.11,9.45-2.63,9.54a7.81,7.81,0,0,0-3.21,1.5c-.47.34-.93.71-1.38,1.08l-.23.19,4.83-.2-6.47,6.85a1.08,1.08,0,0,1,0,.19c-.17,1.09-.38,2.21-.54,3.26-4.64,30.72,7.55,59.65,35,76.4a80.35,80.35,0,0,0,35.14,11.67c9.64.75,19.73,1,29.06-1.31,8.89-2.23,19.64-6.66,27-12.63l.49.55c9.36,11.16,24.11,14.89,37.46,9,6.39-2.81,13.81-6.54,15.86-14.89a76.63,76.63,0,0,0,2-12.18,63.27,63.27,0,0,0,0-7.67l0-.87a75.43,75.43,0,0,0,67.51,22.94c25.23-4,46.46-18.89,56.69-42.68,15.91,22,41,34.53,68.2,31.37,26.39-3.07,50.36-17.44,61.26-42.56,3.55,8.67,11.12,17.76,18.63,23.19a81.5,81.5,0,0,0,49.08,15.38c17.17-.47,32.19-6.6,46.76-14.75a55.71,55.71,0,0,0,24.35-27.85c1.26-3.18,2.35-6.47,3.4-9.65.45-1.39.91-2.79,1.39-4.17,2.78,6.44,9,20.23,11.9,24.28a51.19,51.19,0,0,0,6.37,7.66c.83.79,1.66,1.6,2.5,2.41,3.5,3.41,7.12,7,11.37,9.49,12.21,7.27,25.24,9.69,39.28,10.48,10.18-.13,20.2-.41,30.28-2a68.31,68.31,0,0,0,38.38-19.57,109.91,109.91,0,0,0,7.47-8.91c.71-.91,1.42-1.84,2.16-2.76,3.14,8.86,11.59,17.51,18.51,23.11a70.09,70.09,0,0,0,57.13,13.73c12.82-2.71,25.55-10.32,31.28-22.46a24.09,24.09,0,0,0,2.28-8.07,65.33,65.33,0,0,0,3.58,17.21,35.72,35.72,0,0,0,31.83,23.67c9.33.43,18.41-2.25,25-8.28,6.74-6.2,10.41-14.94,9.74-23.42a23.28,23.28,0,0,0-1.83-6.12,32.48,32.48,0,0,1-1.56-4.52,35.8,35.8,0,0,0,40.31-5.29c.06,1.35.1,2.71.15,4.05a107.9,107.9,0,0,0,1.1,14.27c2.14,12.77,6.3,27.19,16,36.32a21.72,21.72,0,0,0,23.13,4.31l.69-.29c2.39-1,4.91-2.08,7.2-3.33,13.57-7.37,22.46-23,23.72-38.37a27.25,27.25,0,0,1,1-4.78c.1-.37.2-.73.29-1.11,13.64,7.72,27.56,5.33,37.86-6.72l0,.08c2.21,8.61,8.06,18.5,14.22,24.84.61.62,1.22,1.28,1.83,1.92a80.15,80.15,0,0,1,8.34,9.78,2.67,2.67,0,0,1,0,3c-7.12,10.53-12.34,22.93-12.22,35.87.07,6.68,1.33,15,10.4,20.13a4.43,4.43,0,0,1,1.28,1.27,14.21,14.21,0,0,0,9.55,5.74,19.51,19.51,0,0,0,4.36.16c9-.62,15.73-5.21,20.6-9.14,11.06-8.92,19.67-20,27.57-31.44,6.06-8.79,12.17-18,17.78-27.22C770.81-226.68,786.47-251,779.44-272.58ZM-297.25-338.37c1.94,0,3,.94,3.08,3-.1,1.95-1.19,2.93-3.27,3-2.29,0-3.06-1.65-3.12-3.31C-300.63-337.55-299.09-338.38-297.25-338.37Zm5,59.88-1,.45c-3.87,1.71-7.86,3.49-11.13,6a12.35,12.35,0,0,0-5.15,9.12c-.16,3.57,1.49,7.08,4.64,9.9a14.84,14.84,0,0,1-7.88-4.1,14.86,14.86,0,0,1-4.05-12.22c.07-.59.19-1.18.32-1.8.09-.46.18-.93.26-1.4.52-3.37,2.6-5.17,7.41-6.4a32.49,32.49,0,0,1,4-.76,57.92,57.92,0,0,1,15,.35A16.23,16.23,0,0,0-292.23-278.49Zm14.81-37.34c-1.31-4.29-2.81-8.41-7.71-10.19a4.43,4.43,0,0,1-2.27-6.09,4.66,4.66,0,0,1,6-2.62,38.81,38.81,0,0,1,17,13.09c.79,1.06.93,2.6,1.37,3.93a7.58,7.58,0,0,1-6.81,7A7,7,0,0,1-277.42-315.83Zm37.31,70a4.69,4.69,0,0,1-3.58,1.54,4.29,4.29,0,0,1-3.09-2.36c-.93-3.46-3.22-5.15-6.4-6.14a7.75,7.75,0,0,1-5.76-7.75,7.84,7.84,0,0,1,6.37-7.29,7.94,7.94,0,0,1,8.73,4.79C-242-259-237.61-249-240.11-245.8Zm82.08-3.55h-.1c-6.18.57-10.08-2.43-10.61-8.19a8.76,8.76,0,0,1,2.34-6.8,11,11,0,0,1,7.22-3.37,9.43,9.43,0,0,1,10.52,9C-148.27-253.59-151.95-249.92-158-249.35Zm38.54-38.94a2.35,2.35,0,0,1-1.49.6c-1,0-2-.75-3.07-1.68a31.25,31.25,0,0,0-4.35-2.9c-1.56-.91-3.12-1.8-4.64-2.77-3.3-2.1-6.44-4.26-10.8-3.79-2.22.23-4.23-1.21-5.24-3.5a4.43,4.43,0,0,1,1.24-5.34,7.18,7.18,0,0,1,.94-.75,1.57,1.57,0,0,1,.3-.2,4.48,4.48,0,0,1,1-.41c2.88-1.05,10.26-2.24,18.53,8.24l6.17,6.67C-120.24-293-118.07-289.45-119.49-288.29Zm4.31,13a3.15,3.15,0,0,1-2.21-2.23c0-.75,1.3-2.14,2.14-2.22S-110.57-277.38-115.18-275.26ZM-28.5-259h-.06c-3.18.17-5.72-.48-7.54-2a8.77,8.77,0,0,1-3-6.65c-.27-5.13,4-9.42,9.65-9.75h0a10.35,10.35,0,0,1,7,2.13A9.42,9.42,0,0,1-19-268.29C-18.7-263-22.44-259.37-28.5-259ZM3.23-303.9a3.15,3.15,0,0,1-3,0c-4.9-4.88-11-6.57-17.63-7.51-3.59-.51-4.45-1.68-3.88-4.38,1.17-8.45,16,.76,20.93,4A18.5,18.5,0,0,1,4.32-307C4.72-306.44,4-304.55,3.23-303.9Zm4.58,5.15c-1.69-.26-2.3-3.81.19-3.81S10.1-298.49,7.81-298.75Zm93.31-18.92c.76.07,2.92.11,2.92,1.59s-2.24,1.63-2.62,1.46c-.82-.39-1.49-.86-1.49-1.94S100.56-317.72,101.12-317.67Zm-7.76,4.85c-1.57,0-4.25-3.92-3.65-5.33s1.27-3.31,3.3-3.31a4.64,4.64,0,0,1,4.07,4C97.2-315.44,95.61-312.86,93.36-312.82ZM106-266.13h0c-6.2.14-10.2-3.05-10.37-8.28a9.62,9.62,0,0,1,2.93-7.41,10.06,10.06,0,0,1,6.81-2.68h.1c5.56-.05,10.16,4.06,10.25,9.15C115.74-269.53,112.31-266.26,106-266.13Zm41.8-108.31a5.57,5.57,0,0,1-3.58-.07c-3.28-1.11-6.43-2-9.77,0-2.6,2.56-8.87-9,11.17-5.24C150.74-378.75,148.54-374.74,147.78-374.44Zm9.67,2.55c-1.4,3.46-6.81-2.51-5.27-3.22S158.85-375.34,157.45-371.89Zm80.72,3.06c-1.49-1.91-1.95-4.3-5.14-3.91-1.93.23-3.85,0-4.17-2.28.36-6,8.45-2.18,10-1.15,2.89,2,4.91,4.75,5,8.4a1.81,1.81,0,0,1-1.16,1.93c-.92.35-2.18-.26-3-.92A14.28,14.28,0,0,1,238.17-368.83Zm5,10.79c-.46,0-1.61-1.44-1.46-1.71a4.22,4.22,0,0,1,2.11-1.82C246.68-361.91,245.1-358,243.15-358Zm15.39,90.88h0c-6.31-.14-9.76-3.46-9.63-9.26a8.91,8.91,0,0,1,3.19-6.6,10.73,10.73,0,0,1,7.43-2.5A9.6,9.6,0,0,1,269-275.39C268.75-270.15,264.76-267,258.54-267.16Zm21.64-53.22a9.31,9.31,0,0,1-3.82-1c-1.9-.83-3.33-.22-4.94.83a3.83,3.83,0,0,1-3.3.42,3.28,3.28,0,0,1-1.19-3c1.17-3.56,10.92-1.94,14-1.25C281.89-324.21,285-321.48,280.18-320.38Zm16.58,3.4a2.26,2.26,0,0,1-2.52,1.54c-2.07-.07-4-1.66-3.51-2.8a3.87,3.87,0,0,1,2.49-1.89C294.86-320.46,297.1-318.4,296.76-317Zm106.5,37.05c-.35,5.49-3.95,8.7-9.4,8.39h-.09c-5.39-.35-9.11-4.38-8.85-9.65a9.19,9.19,0,0,1,3.5-6.63,9.84,9.84,0,0,1,6.77-2.16C400.52-289.63,403.64-285.75,403.26-279.93ZM405.88-319c-.58.51-2.41.72-2.68.35-3-4.06-7.31-3.14-11.36-3.12-2,0-3.35-.58-3.38-2.2,0-3.25,4.24-5.65,7.28-4.56s6.11,2.35,9.11,3.67A3.67,3.67,0,0,1,405.88-319Zm3.46,2.35c-3.06,0-1.54-3.48.14-3.48S412.4-316.7,409.34-316.7Zm29.3,55.3a117.24,117.24,0,0,0-.74,14.4A16.74,16.74,0,0,0,431-257.72c3.13-2.19,4.7-3.29,7.84-5.47C438.75-262.56,438.7-262,438.64-261.4ZM473.45-308c-1.51-1.06-2.1-2.48-1.25-3.87.41-.68,2.06-.92,3.12-.86a16,16,0,0,1,10.32,4.24C487.3-307,489-299.62,473.45-308ZM530.78-299c-6,3-5.57-4.24-4-4.76a3.56,3.56,0,0,1,3,.41C530.74-302.34,532.24-299.63,530.78-299Zm4.37,2c0-2.72,3.27-2,3.85-.27S535.15-294.29,535.15-297Zm53.49,4.67c-4.65-.88-8.29-3.35-10.23-7.76-1.36-3.07.1-5.07,3.44-5,4.38,0,9.88,4.35,10.9,8.56A3.57,3.57,0,0,1,588.64-292.35Zm44.25,4a2.14,2.14,0,0,1-1.75-3.33,14.66,14.66,0,0,1,4.94-4.1,1.56,1.56,0,0,1,2.47,1.24C638.44-291.42,635.1-288.24,632.89-288.32ZM645-290.95c-.52,1.52-1.74,2.59-3.53,1.64C638.42-290.93,646.05-294,645-290.95Zm54.84,9.68c-1.36-1.26-2.27-3-3.54-4.36s-2.77-2.28-3.89-3.64c-.76-.92-1.7-2.71-1.32-3.31,3.67-6.54,12.07,2.92,13.34,6.09S704.83-277.77,699.86-281.27Zm44,7a5.52,5.52,0,0,1-4.11,2.9,2.22,2.22,0,0,1-2.26-3.08c.59-1.18,2.43-1.92,3.87-2.4C742.94-277.38,745-276.24,743.83-274.26Zm13.58,9c-2-5-4.38-4-7.59-7.87l-.25-.38c-1.37-1.57-2.48-3.23-.69-5.18,1.65-1.79,3.72-1.79,5.84.22,3.66,3.45,7.43,6.85,9.21,11.76C764.59-265.8,762.09-257.67,757.41-265.25Z"/></clipPath><image id="image" width="2732" height="1871" xlink:href="../../Downloads/paint.png"/></defs><g class="cls-3"><g id="Layer_9" data-name="Layer 9"><path class="cls-4" d="M305.85,192.84s-7.47-21.63-22.53-35.82a180.67,180.67,0,0,0-47.86-31.11l-3.19-1.16-5.94-7.34A66.48,66.48,0,0,0,249,108.76a75.43,75.43,0,0,0,9.56-6.9,92.67,92.67,0,0,0,13.58-14.37c.69-.89,1.36-1.8,2-2.71,1.56-2.16,3-4.37,4.46-6.63.24-.37.46-.77.69-1.15s.28-.47.41-.71.12-.22.16-.3v0c.11-.28,0-.41-.34-.67-.1-.08-.2-.14-.3-.21a48.35,48.35,0,0,0-6.6-3.78h0c-.79-.37-1.59-.71-2.39-1l-.71-.27c-.64-.25-1.27-.48-1.92-.69l-.61-.21c-.81-.26-1.64-.5-2.47-.71l-.57-.14c-.67-.16-1.34-.31-2-.44l-.76-.14c-.77-.14-1.56-.26-2.34-.36l-.25,0c-.89-.11-1.79-.18-2.69-.24l-.47,0c-.86,0-1.74-.08-2.61-.08h-.38c-.92,0-1.84,0-2.78.09h0c-7.12.43-21.72.67-36.12,7.88-7.24,3.62-26.06,15.24-33.1,20.57v.06c0,.15-.32.28-.61.41l-.37.29c0-.11.17-.2.37-.29l.61-.47a67.46,67.46,0,0,1,9-39A75.06,75.06,0,0,1,196,47.1c1.5-1.63,13.49-10.41,11.8-12.76a9.51,9.51,0,0,0-.73-.92l-.26-.27c-.18-.19-.36-.37-.56-.55s-.22-.19-.33-.28-.36-.3-.55-.43l-.37-.26c-.19-.12-.38-.25-.57-.36l-.4-.22-.61-.29-.41-.17c-.21-.09-.43-.16-.64-.23l-.41-.13c-.23-.07-.47-.12-.71-.17l-.36-.08q-.47-.07-.93-.12l-.17,0h-.2c-.21,0-.42,0-.63,0h-.15l-.34,0-.64,0-.38.06-.6.1-.39.09-.59.16-.38.12-.58.23-.36.15c-.21.09-.41.2-.61.31l-.31.16c-.29.16-.57.35-.85.54l0,0a94.66,94.66,0,0,0-19.58,18.92l-.12.16q-2.74,3.52-5.2,7.29c-1.81,2.81-3.47,5.68-5,8.6a93.08,93.08,0,0,0-7.89,20.38c-.27,1.08-.55,2.16-.78,3.26C149.1,85,143.54,79,141.09,76.67A109.63,109.63,0,0,0,120.78,61a66.34,66.34,0,0,0-19.9-8h0c-.91-.2-1.83-.36-2.74-.5l-.36-.06c-.87-.13-1.74-.23-2.6-.31l-.47,0C93.79,52,92.89,52,92,52H90.83l-1.47,0-.75,0c-.7,0-1.4.08-2.09.15l-.56,0c-.86.09-1.71.21-2.56.35l-.61.11c-.68.12-1.35.25-2,.41l-.73.16c-.85.21-1.7.43-2.54.68h0a46.86,46.86,0,0,0-7.08,2.78l-.32.16c-.25.14-.39.23-.44.36s0,.31.11.62c.26.67.52,1.34.82,2,1.53,3.47,3.19,6.88,5,10.18A85.12,85.12,0,0,0,95.39,94.42a70.2,70.2,0,0,0,6.72,4.91c-1.25.22,12.74,8,12.74,8-2.56.65-10.51.39-13.2.87a85.18,85.18,0,0,0-29.26,11.48c-3.24,2-6.36,4.11-9.41,6.37-.58.43-1.15.88-1.7,1.34s-.5.51-.2,1l.2.3a66.7,66.7,0,0,0,5.52,7.12c.37.39.77.76,1.15,1.14-19.88,17.38-33.86,39.07-33.86,39.07C9.3,221.83,14,275.89,46.68,314.66a118.12,118.12,0,0,0,50.34,35c1.63.6,3.22,1.28,5.54,2.21a31.33,31.33,0,0,0-10.44,19.52c-3.2,22.84,14.48,47.57,33.85,54,9.63,3.18,16.83,3.63,29.65,1,45.38-15.47,91.32-75.23,104.29-88.63,18.37-19,33.16-40.3,42.73-65.06C312.78,246.42,314.64,219.85,305.85,192.84ZM234.8,266.17c-10.65,13-24.91,21.6-38.82,30.43-9.06,5.75-18.36,11.13-27.7,16.45l-7.1-4.24c-10.63-6.85-20.17-13.21-30-19.05-17.56-10.43-32.49-23.32-40.95-42.36-6.42-14.44-7.56-29.34,1.44-43,16.92-25.69,52.09-24.91,71.38.54,5.16,6.81,5.23,7.23,10.18.52,10.09-13.64,24.14-19.46,40.41-18.9,14.21.49,25.47,7.57,32.1,20.53C255.35,225.89,247.46,250.67,234.8,266.17ZM270,178.7a4.31,4.31,0,0,1,3.15-1.48,5.85,5.85,0,0,1,4.29,1.84c2.23,2.26,2.6,5.78.82,7.84h0a4.27,4.27,0,0,1-3.15,1.48H275a5.88,5.88,0,0,1-4.13-1.84C268.62,184.28,268.25,180.76,270,178.7Zm22.74,51.92c-.24,24-6.87,30.95-7.43,31.49-.34.38-3.91,4.21-8.41,4.51a8.21,8.21,0,0,1-6.06-2.14,11.2,11.2,0,0,1-1.31-.92,6.69,6.69,0,0,1-2.29-3.65c-.79-3.46,1.35-6.85,1.63-7.28a80.22,80.22,0,0,0,7.19-28.13v0a50.67,50.67,0,0,0-1-18.44,6.89,6.89,0,0,1-1.14-3.76,7,7,0,0,1,1.78-4.67,7.37,7.37,0,0,1,10.18-.75,7.11,7.11,0,0,1,1.52,1.81h0a23,23,0,0,1,2.77,6.79C291.46,209.9,292.9,217.89,292.77,230.62Z"/><path class="cls-5" d="M213.63,186.57c-16.27-.56-30.32,5.26-40.41,18.9-4.95,6.71-5,6.29-10.18-.52-19.29-25.45-54.46-26.23-71.38-.54-9,13.65-7.86,28.55-1.44,43,8.46,19,23.39,31.93,40.95,42.36,9.84,5.84,19.38,12.2,30,19.05l7.1,4.24c9.34-5.32,18.64-10.7,27.7-16.45,13.91-8.83,28.17-17.4,38.82-30.43,12.66-15.5,20.55-40.28,10.93-59.07C239.1,194.14,227.84,187.06,213.63,186.57Zm12.22,17.3a1.71,1.71,0,0,1,.45-2.38c.78-.53,1.52-.08,1.86.8C229.09,204.73,226.38,204.65,225.85,203.87Zm5.85,41.75a2.94,2.94,0,0,1-.89,1,2.9,2.9,0,0,1-4-.77c-1.25-1.83,1-4.39,1.23-5,1.49-3.73,5.69-17.32.92-24.22a2.65,2.65,0,1,1,4.38-3C241.71,225,231.91,245.25,231.7,245.62Z"/><path class="cls-2" d="M168.25,315.94l-8.35-5-7.5-4.85c-7.74-5-15.05-9.77-22.51-14.2-21-12.45-34.3-26.27-41.95-43.5-7.56-17-7-32.27,1.63-45.38,8.07-12.25,20.8-19.54,34.93-20,15.3-.5,30.46,7.13,40.53,20.42l.38.5a43.07,43.07,0,0,0,2.93,3.63,37,37,0,0,0,2.87-3.58c10.08-13.65,24.77-20.53,42.51-19.92,15.12.52,27.27,8.29,34.23,21.89,10.4,20.3,1.48,46.26-11.21,61.79-10.21,12.49-23.66,21-36.67,29.22l-2.75,1.74c-8.63,5.47-17.35,10.56-27.8,16.51ZM125.93,188l-1.27,0c-12.48.41-23.75,6.89-30.92,17.76-7.64,11.6-8,25.26-1.23,40.6,7.21,16.23,19.9,29.33,39.94,41.23,7.54,4.48,14.89,9.25,22.67,14.3,2.42,1.58,4.89,3.17,7.41,4.8l5.78,3.45c9.83-5.61,18.14-10.47,26.33-15.67l2.76-1.75c12.67-8,25.78-16.29,35.46-28.15,11.7-14.31,20-38,10.64-56.35-6.18-12.08-16.54-18.71-29.95-19.17h0c-16.25-.56-29.13,5.46-38.32,17.89-2.58,3.5-4.29,5.81-6.86,5.82s-4.09-2.06-6.94-5.82l-.38-.5C152.24,194.83,139.19,188,125.93,188Z"/><path class="cls-6" d="M287.46,198.66h0a7.11,7.11,0,0,0-1.52-1.81,7.37,7.37,0,0,0-10.18.75,6.91,6.91,0,0,0-.64,8.43,50.67,50.67,0,0,1,1,18.44v0a80.22,80.22,0,0,1-7.19,28.13c-.28.43-2.42,3.82-1.63,7.28a6.69,6.69,0,0,0,2.29,3.65,11.2,11.2,0,0,0,1.31.92,8.21,8.21,0,0,0,6.06,2.14c4.5-.3,8.07-4.13,8.41-4.51.56-.54,7.19-7.5,7.43-31.49.13-12.73-1.31-20.72-2.54-25.17A23,23,0,0,0,287.46,198.66Zm3.8,32c-.13,12.42-2,20-3.59,24.26-1.7,4.55-3.38,6.19-3.4,6.21l0,.05s-3.38,3.75-7.38,4a6.82,6.82,0,0,1-5-1.82l-.05-.05-.07,0a5.74,5.74,0,0,1-3-3.66c-.69-3,1.42-6.15,1.44-6.18l0-.08c.06-.11,6-11.63,7.37-28.7a52,52,0,0,0-1-19.08l0-.12-.07-.11a5.31,5.31,0,0,1-1-3.06,5.47,5.47,0,0,1,1.4-3.68,5.82,5.82,0,0,1,8-.6,5.51,5.51,0,0,1,1.21,1.43l.06.11,0,0a22.75,22.75,0,0,1,2.58,6.48C290,210.36,291.38,218.17,291.26,230.61Z"/><path class="cls-6" d="M275,188.38a5.88,5.88,0,0,1-4.13-1.84c-2.23-2.26-2.6-5.78-.82-7.84a4.31,4.31,0,0,1,3.15-1.48,5.85,5.85,0,0,1,4.29,1.84c2.23,2.27,2.6,5.78.82,7.84h0a4.27,4.27,0,0,1-3.15,1.48Zm-1.64-9.66h-.11a2.76,2.76,0,0,0-2.06,1c-1.28,1.48-.94,4.09.75,5.81a4.46,4.46,0,0,0,3.17,1.39,2.78,2.78,0,0,0,2.07-1c1.28-1.48.94-4.08-.76-5.8A4.41,4.41,0,0,0,273.34,178.72Z"/><path class="cls-5" d="M141.4,428.54a47.44,47.44,0,0,1-15.58-2.74c-18.88-6.24-37.51-30.88-34.19-54.52a31.5,31.5,0,0,1,10-19.28l-1.43-.58c-1.25-.51-2.31-.94-3.37-1.33A119,119,0,0,1,46.3,315C13.74,276.37,8.78,221.74,33.65,175.82c.16-.25,14.07-21.68,33.57-38.85q-.41-.37-.78-.78a.49.49,0,0,1,0-.69.51.51,0,0,1,.36-.15.46.46,0,0,1,.33.13l5,4.54a.51.51,0,0,1,0,.76A134.89,134.89,0,0,0,51,162.19c-.1.12-9.68,12.61-11.55,16.07-25.82,47.72-18.6,104,18,140a78.26,78.26,0,0,0,14.4,11.31l.07.05a64.82,64.82,0,0,0,11.45,5.45l28.05,13.35a.52.52,0,0,1,.29.41.5.5,0,0,1-.22.45c-2,1.41-3.78,2.66-5.38,3.84-8.43,6.22-12.18,13.14-11.47,21.18.61,6.93,1.85,12,3.91,16,8.9,17.33,26.89,28.1,47,28.1a52.66,52.66,0,0,0,32.5-11,565.92,565.92,0,0,0,64.5-58.92c20.52-21.64,36.07-43.26,47.55-66.1,15.9-31.63,18.44-63.74,7.34-92.85-.06-.27-4.07-18.77-25.8-36.33a165.26,165.26,0,0,0-32-19.41.56.56,0,0,1-.27.08.48.48,0,0,1-.39-.19l-7-8.62a.51.51,0,0,1,0-.61.49.49,0,0,1,.4-.21.47.47,0,0,1,.17,0l3.19,1.16a181.87,181.87,0,0,1,48,31.21c15,14.12,22.58,35.81,22.66,36,8.42,25.88,7.34,52.85-3.21,80.17C294,296.33,280,317.67,260.27,338.08c-2.14,2.21-5.16,5.66-9,10-18.67,21.35-57.51,65.77-95.51,78.73A72.91,72.91,0,0,1,141.4,428.54Z"/><path class="cls-5" d="M232.27,124.75l3.19,1.16A180.88,180.88,0,0,1,283.33,157c15.05,14.19,22.52,35.82,22.52,35.82,8.79,27,6.93,53.58-3.21,79.83-9.57,24.76-24.36,46.08-42.73,65.06-13,13.4-58.91,73.16-104.29,88.63A71.56,71.56,0,0,1,141.4,428,47.24,47.24,0,0,1,126,425.32c-19.37-6.4-37-31.13-33.85-54a31.25,31.25,0,0,1,10.44-19.52c-2.32-.93-3.91-1.61-5.54-2.21a118.12,118.12,0,0,1-50.34-35C14,275.89,9.3,221.83,34.09,176.06c0,0,14-21.69,33.86-39.07-.38-.38-.78-.75-1.15-1.14l5,4.54a135.17,135.17,0,0,0-21.2,21.49S41,174.49,39,178c-25.29,46.75-19,104.1,18,140.61A78.8,78.8,0,0,0,71.57,330h0l.07,0a64.44,64.44,0,0,0,11.54,5.5l28,13.33q-2.73,1.89-5.4,3.85c-7.16,5.28-12.51,12.15-11.67,21.62.49,5.51,1.49,11.39,4,16.23,9.4,18.32,28.23,28.37,47.4,28.37a53.35,53.35,0,0,0,32.8-11.15,567.83,567.83,0,0,0,64.56-59c18.91-19.93,35.31-41.69,47.64-66.21,15.3-30.45,18.85-63.13,7.36-93.26,0,0-3.81-18.64-26-36.54a165.24,165.24,0,0,0-33-19.84l-6.66-8.23m6.66,8.23h0l.33.4-.33-.4m-6.66-9.23a1,1,0,0,0-.81.43,1,1,0,0,0,0,1.2l6.65,8.22h0l.33.41a1,1,0,0,0,.78.37.73.73,0,0,0,.25,0,164.88,164.88,0,0,1,31.77,19.27c21.56,17.42,25.55,35.77,25.59,35.95a.88.88,0,0,0,.05.15c11,29,8.51,60.95-7.32,92.46-11.46,22.79-27,44.37-47.47,66A565,565,0,0,1,177.68,407,52.08,52.08,0,0,1,145.49,418c-19.88,0-37.7-10.66-46.51-27.83-2-4-3.26-9-3.87-15.86-.69-7.84,3-14.62,11.28-20.73,1.58-1.16,3.34-2.42,5.37-3.83a1,1,0,0,0-.14-1.72l-28-13.33-.09,0a64.52,64.52,0,0,1-11.36-5.41l0,0,0,0a77.65,77.65,0,0,1-14.31-11.23C21.39,282.05,14.21,226,39.92,178.5c1.85-3.43,11.41-15.88,11.51-16a135.08,135.08,0,0,1,21-21.33,1,1,0,0,0,.37-.75,1,1,0,0,0-.33-.77l-5-4.53a1,1,0,0,0-.67-.26,1,1,0,0,0-.73,1.69l.41.41C47.15,154.1,33.39,175.3,33.25,175.51l0,.07a127.89,127.89,0,0,0-15.37,72.5A120.16,120.16,0,0,0,96.67,350.56c1.06.38,2.13.82,3.36,1.32l.72.3a31.79,31.79,0,0,0-9.62,19c-1.54,11,1.52,23,8.61,33.84,6.73,10.27,16.17,18,25.92,21.22A47.94,47.94,0,0,0,141.4,429a72.78,72.78,0,0,0,14.42-1.7l.12,0c38.13-13,77-57.49,95.72-78.87,3.82-4.37,6.84-7.81,9-10,19.8-20.46,33.84-41.85,42.94-65.4,10.6-27.43,11.69-54.52,3.23-80.5-.08-.24-7.73-22-22.79-36.24A182.11,182.11,0,0,0,235.86,125l-.05,0-3.2-1.16a1,1,0,0,0-.34-.06Z"/><path class="cls-7" d="M250.4,171.28c-1.76,0-3.58-.07-5.43-.21-13.23-1-39.58-6.4-67.43-31.82-3.23-2.68-6.54-5.23-9.88-7.58A156.06,156.06,0,0,1,146.05,144c-7.89,3.7-28.93,9.93-38,10.07h-1.36a69.27,69.27,0,0,1-18.34-2.29c-.84-.22-1.68-.47-2.52-.74A50.47,50.47,0,0,1,70,142.75l-.14-.11L66,139.24s-.46-.43-.46-.43c-.3-.3-.61-.59-.9-.89a72.56,72.56,0,0,1-5.82-7.5l-.29-.44a3.48,3.48,0,0,1,.86-4.88c.6-.49,1.2-1,1.82-1.43,3.43-2.54,6.58-4.67,9.65-6.53a87.55,87.55,0,0,1,30.28-11.86,29.68,29.68,0,0,1,3.62-.31c-2.71-1.63-4.28-2.67-5.07-3.65a69.39,69.39,0,0,1-6.19-4.59A87.61,87.61,0,0,1,73,71.46c-1.75-3.12-3.44-6.54-5.17-10.43-.31-.71-.6-1.43-.87-2.15a3.71,3.71,0,0,1-.12-2.74,3.66,3.66,0,0,1,1.78-1.93L69,54a52.17,52.17,0,0,1,7.59-3h0c.8-.25,1.68-.48,2.68-.72.26-.07.53-.13.79-.18.7-.16,1.42-.31,2.14-.43l.66-.12c.92-.15,1.84-.28,2.73-.37l.59-.05c.74-.07,1.49-.12,2.23-.15l.81,0,1.55,0H92c.95,0,1.89.08,2.9.17l.49,0c1,.1,1.88.2,2.76.34l.39.06c1,.16,2,.33,2.87.51h0a68.76,68.76,0,0,1,20.81,8.36A111.47,111.47,0,0,1,143.16,74.5c1.68,1.61,4.84,4.91,9.44,9.83a95.71,95.71,0,0,1,7.58-18.93c1.6-3.05,3.33-6,5.14-8.84,1.68-2.58,3.48-5.1,5.35-7.5l.13-.17A98,98,0,0,1,191,29.38l.09-.06c.34-.24.68-.46,1-.66l.33-.18.84-.42.38-.16c.32-.14.57-.23.82-.32l.49-.16.76-.21.48-.11L197,27l.49-.07.81-.06.45,0h.2l.79,0H200l.31,0c.32,0,.71.08,1.11.14l.38.08,1,.24.42.13.1,0,.82.29.51.22.79.38.52.29c.25.14.49.29.73.45s.32.21.47.33.49.37.72.56l.42.36c.24.22.47.45.7.69l.35.36a14.44,14.44,0,0,1,.93,1.17c2.69,3.77-1.87,8-9.72,14.54-.88.74-2,1.64-2.28,2A69.23,69.23,0,0,0,192,58a64,64,0,0,0-8.75,31.81c8.88-6.05,23-14.58,28.93-17.56,13.83-6.92,27.92-7.69,35.49-8.1l1.79-.1c.94,0,1.9-.09,3-.09h.4c.88,0,1.79,0,2.77.08l.51,0c1,.06,1.95.15,2.85.25l.22,0c.88.12,1.71.25,2.54.39l.82.16c.71.14,1.42.29,2.13.47l.62.14c.88.23,1.76.49,2.63.76l.66.22c.68.23,1.36.48,2,.74l.76.29c.95.39,1.75.73,2.5,1.09l.12,0a50.29,50.29,0,0,1,7,4c.18.12.3.2.41.29A3.44,3.44,0,0,1,282.75,77l-.08.21a6.21,6.21,0,0,1-.29.58l-.29.49-.3.51c-.19.33-.39.67-.59,1-1.54,2.44-3,4.65-4.57,6.77-.68.94-1.36,1.88-2.07,2.79a95.49,95.49,0,0,1-14,14.83,78.51,78.51,0,0,1-9.94,7.17,70,70,0,0,1-18.88,8l2.59,3.2c1,.81,2.86,2.85,7,8.66l.14.18c14.39,13.74,18,35.19,18.1,36.1a3,3,0,0,1-2.47,3.43A44.26,44.26,0,0,1,250.4,171.28Z"/><path class="cls-5" d="M199,29.82h.83l.17,0q.47,0,.93.12l.36.08c.24.05.48.1.71.17l.41.13c.22.07.43.14.64.23l.41.17.61.29.4.22q.29.16.57.36l.37.26c.19.13.37.28.55.43s.23.18.33.28.38.36.56.55l.26.27a9.51,9.51,0,0,1,.73.92c1.69,2.35-10.3,11.13-11.8,12.76a75.06,75.06,0,0,0-6.53,9.32,67.46,67.46,0,0,0-9,39l-.61.47c-.2.09-.38.18-.37.29l.37-.29c.29-.13.62-.26.61-.42v0c7-5.33,25.86-17,33.1-20.57,14.4-7.21,29-7.45,36.12-7.88h0c.94-.06,1.86-.09,2.78-.09h.38c.87,0,1.75,0,2.61.08l.47,0c.9.06,1.8.13,2.69.24l.25,0c.78.1,1.57.22,2.34.36l.76.14c.68.13,1.35.28,2,.44l.57.14c.83.21,1.66.45,2.47.71l.62.21c.64.21,1.27.44,1.91.69l.71.27c.8.33,1.6.67,2.39,1h0a48.35,48.35,0,0,1,6.6,3.78c.1.07.2.13.3.21.34.26.45.39.34.67v0c0,.08-.09.18-.16.3s-.27.47-.41.71-.44.78-.69,1.15c-1.42,2.26-2.9,4.47-4.46,6.63-.66.91-1.33,1.82-2,2.71a92.67,92.67,0,0,1-13.58,14.37,75.43,75.43,0,0,1-9.56,6.9,66.48,66.48,0,0,1-22.71,8.65l5.94,7.34c1.06.38,6.66,8.23,6.66,8.23l.33.4c13.93,13.19,17.34,34.53,17.34,34.53a42,42,0,0,1-6.2.37c-1.5,0-3.24-.05-5.21-.2-13.93-1-39-6.68-65.68-31.09-4-3.34-8-6.31-11.85-9a152.43,152.43,0,0,1-22.89,13.23c-7.86,3.67-28.3,9.64-36.8,9.78h-1.32a67,67,0,0,1-17.56-2.18c-.8-.22-1.6-.45-2.39-.7a47.49,47.49,0,0,1-14.87-7.77L68,137c-.38-.38-.78-.75-1.15-1.14a67.72,67.72,0,0,1-5.52-7.12l-.2-.3c-.3-.5-.29-.61.2-1s1.12-.91,1.7-1.34c3.05-2.26,6.17-4.4,9.41-6.37a85.18,85.18,0,0,1,29.26-11.48c2.69-.48,10.64-.22,13.2-.87,0,0-14-7.81-12.74-8a70.2,70.2,0,0,1-6.72-4.91A85.12,85.12,0,0,1,75.62,70c-1.85-3.3-3.51-6.71-5-10.18-.3-.66-.56-1.33-.82-2-.11-.31-.16-.48-.11-.62s.19-.22.44-.36l.32-.16a46.86,46.86,0,0,1,7.08-2.78h0c.84-.25,1.69-.47,2.54-.68l.73-.17c.67-.15,1.34-.28,2-.4l.61-.11c.85-.14,1.7-.26,2.56-.35l.56,0c.69-.07,1.39-.12,2.09-.15l.75,0,1.47,0H92c.9,0,1.8.08,2.7.16l.47,0c.86.08,1.73.18,2.6.31l.36.06c.91.14,1.83.3,2.74.5h0a66.34,66.34,0,0,1,19.9,8,109.63,109.63,0,0,1,20.31,15.65c2.45,2.35,8,8.28,13.07,13.76.23-1.1.51-2.18.78-3.26a93.08,93.08,0,0,1,7.89-20.38c1.54-2.92,3.2-5.79,5-8.6q2.46-3.77,5.2-7.29l.12-.16a94.66,94.66,0,0,1,19.58-18.92l0,0c.28-.19.56-.38.85-.54l.31-.16c.2-.11.4-.22.61-.31l.36-.15.58-.23.39-.12.58-.16.39-.09.6-.1.38-.06.64,0,.34,0H199m0-6h-.26l-.5,0c-.37,0-.7,0-1,.08l-.51.07h-.07l-.94.16-.63.14c-.29.07-.59.16-.88.25l-.62.19c-.31.11-.61.23-.91.36l-.07,0-.48.21c-.33.15-.64.31-1,.47l-.48.26c-.42.25-.83.51-1.22.78l-.14.1a100.43,100.43,0,0,0-20.83,20.11l-.16.21c-1.91,2.46-3.75,5-5.45,7.65-1.88,2.92-3.66,6-5.3,9.09a101.86,101.86,0,0,0-6.26,14.53q-4.15-4.41-6-6.19a114.62,114.62,0,0,0-21.41-16.49,71.87,71.87,0,0,0-21.72-8.7l-.07,0c-.91-.19-1.9-.37-3-.54l-.12,0-.28,0c-1-.14-1.9-.26-2.93-.35l-.17,0-.36,0c-1.07-.09-2.06-.15-3-.18H90.83l-1.64,0-.78,0h-.07c-.8,0-1.6.09-2.38.16h-.14l-.49,0c-.94.1-1.92.23-2.9.39l-.52.09-.17,0c-.77.14-1.54.29-2.29.46l-.82.19c-1,.25-2,.5-2.84.76h0a53.17,53.17,0,0,0-8,3.13c-.23.1-.42.2-.61.3A6.67,6.67,0,0,0,64,55.1h0a6.69,6.69,0,0,0,.12,4.83c.35.91.65,1.64.94,2.3,1.77,4,3.5,7.48,5.29,10.68A90.34,90.34,0,0,0,91.56,99c1.69,1.4,3.48,2.75,5.34,4a92.42,92.42,0,0,0-27.62,11.51c-3.14,1.9-6.37,4.09-9.87,6.68-.59.43-1.21.92-1.95,1.53A6.5,6.5,0,0,0,56,131.54c.11.18.23.37.36.56A75.77,75.77,0,0,0,62.45,140c.32.33.65.66,1,1l.31.3a2.73,2.73,0,0,0,.25.23l3.88,3.4.26.22a53.49,53.49,0,0,0,16.74,8.75c.87.28,1.76.54,2.65.78A72.2,72.2,0,0,0,106.65,157l1.41,0c9.62-.14,30.95-6.45,39.26-10.34a160.33,160.33,0,0,0,20.28-11.36c2.69,2,5.36,4,8,6.19,28.49,26,55.57,31.55,69.18,32.56,1.92.14,3.82.21,5.65.21a46.74,46.74,0,0,0,7.18-.45,6,6,0,0,0,4.94-6.87c-.15-.94-3.85-23.21-18.83-37.65a69,69,0,0,0-6.69-8.43,73.6,73.6,0,0,0,15.15-7,82.23,82.23,0,0,0,10.33-7.45,100,100,0,0,0,14.46-15.28c.64-.84,1.32-1.75,2.13-2.87,1.56-2.17,3.09-4.44,4.66-6.92.23-.36.45-.73.66-1.1l.15-.26.12-.21c.12-.19.23-.38.34-.57s.29-.55.41-.83.11-.26.16-.39h0a6.45,6.45,0,0,0-2.31-7.48l0,0-.51-.36a54.11,54.11,0,0,0-7.46-4.28l-.08,0c-.79-.37-1.66-.74-2.64-1.14l-.71-.28-.1,0c-.7-.28-1.43-.54-2.16-.78l-.19-.07-.5-.16c-.93-.3-1.87-.57-2.8-.81l-.5-.12-.17,0c-.74-.18-1.51-.35-2.26-.5l-.86-.16c-.94-.17-1.79-.3-2.62-.4l-.33,0c-.94-.11-1.93-.2-3-.27l-.38,0h-.12c-1.06,0-2-.08-2.95-.08h-.43c-1.1,0-2.12,0-3.09.1h0l-1.77.1c-7.79.42-22.28,1.21-36.67,8.4-5,2.51-15.63,8.86-24.25,14.44a60.07,60.07,0,0,1,8-24.46,67.29,67.29,0,0,1,5.81-8.34c.36-.33,1.27-1.09,2-1.7,2-1.69,4.8-4,7-6.2,1.74-1.77,7-7.13,3.27-12.4-.35-.48-.72-1-1.14-1.43-.12-.12-.25-.27-.39-.4h0c-.29-.3-.56-.58-.89-.88l-.48-.41-.06,0c-.19-.16-.49-.41-.84-.66-.2-.15-.39-.28-.59-.41s-.57-.37-.87-.55l-.63-.34c-.32-.17-.63-.32-.94-.46l-.64-.27c-.34-.13-.66-.25-1-.35l-.11,0-.53-.16c-.41-.12-.77-.2-1.1-.27l-.56-.12c-.43-.07-.86-.13-1.33-.17l-.35,0h-.43c-.28,0-.57,0-.87,0Z"/><path class="cls-1" d="M36.12-268.75c0-.45,0-.67-.08-1.11-.55-7.13-1.19-14.61.31-21.36,3-13.5,13.92-24.48,26.26-30.25a57.17,57.17,0,0,1,23-5.61,69.86,69.86,0,0,1,19.13,2.39,3.85,3.85,0,0,0,3.25-.61,3.07,3.07,0,0,0,1.28-2.75c-.13-1.36-.2-2-.33-3.39-.33-3.28-.71-7.07-.93-9.63a57.32,57.32,0,0,1,3.21-25c2.94-8,12.86-15.53,21.22-16.57,10.37-1.29,21.81,1.67,29.09,9.77,5.76,6.41,10,17.05,11.15,25.5,1.95,14.94,4.06,30.33,3.4,45.37-.61,13.88-2.21,27.74-6.93,41.13-5.94,16.88-20.36,30.18-37,35.45a105.67,105.67,0,0,1-36.44,5.35c-15.41-.3-31.78-5.84-43.34-16.63C43.48-245.07,37.1-256.35,36.12-268.75ZM156.46-370.83c1.4-3.45-3.74-3.93-5.27-3.22S155.06-367.37,156.46-370.83Zm-23-2.66c3.34-2,6.49-1.07,9.77,0a5.57,5.57,0,0,0,3.58.07c.76-.3,3-4.31-2.18-5.35C124.57-382.47,130.84-370.93,133.44-373.49Zm-34.5,58c0,1.08.67,1.55,1.5,1.94.37.17,2.62,0,2.62-1.46s-2.17-1.52-2.93-1.59C99.57-316.66,98.94-316.58,98.94-315.5ZM97.5-280.76a9.62,9.62,0,0,0-2.93,7.41c.14,4.3,2.88,7.22,7.29,8a14.42,14.42,0,0,0,3.08.24h0c6.33-.13,9.76-3.4,9.67-9.22a8.9,8.9,0,0,0-3.06-6.49,10.57,10.57,0,0,0-7.19-2.66h-.1a10.9,10.9,0,0,0-2.15.25,10.1,10.1,0,0,0-2.76,1.05A9.23,9.23,0,0,0,97.5-280.76Zm-5.13-31c2.25,0,3.84-2.63,3.72-4.62a4.63,4.63,0,0,0-4.07-4c-2,0-2.74,2-3.3,3.31S90.8-311.73,92.37-311.76Zm547.89,72.43c-6.21,3.62-12.55,3.57-18.91-.17a24.53,24.53,0,0,1-2.63-1.83,5.12,5.12,0,0,0-4.69-.84,4.36,4.36,0,0,0-3.1,3.3c-.41,2-.82,4.1-1.24,6.15-.11.55-.25,1.1-.4,1.65a15.28,15.28,0,0,0-.64,3.53c-.27,8.56-4,14.24-9.47,20.17a29.11,29.11,0,0,1-20.67,9.87c-5.37.23-10-1.9-15-6.92-6.94-6.94-9.33-14.21-10.86-23-2-11.48-1.54-22.4-.44-34.41.21-2.28.49-4.6.74-6.89l0-.19c.74-3.44,1.44-7.32,2.09-11.54.16-1.05.3-2.16.43-3.39a44.4,44.4,0,0,1,13.14-20.33,28.13,28.13,0,0,1,9.19-5.5c8.45-2.91,18.39,1.58,23.8,7.51a45.73,45.73,0,0,1,5.18,7.3,6.56,6.56,0,0,0,4.52,3,6.74,6.74,0,0,0,5.34-1.25c1.57-1.22,2.86-2.19,4-3.05a22.48,22.48,0,0,1,18-3.81,23.4,23.4,0,0,1,15.64,11.41c0,.07.13.2.25.37,3.59,4.77,4.3,14.2,2,26.54,0,0,0,.09,0,.11-.41,4.28-.72,8-4.07,11.48l-1,1C648-245.34,644.64-241.9,640.26-239.33Zm-48.5-56.21c-1-4.21-6.52-8.52-10.9-8.56-3.34,0-4.79,2-3.44,5.05,1.94,4.41,5.58,6.88,10.23,7.76A3.57,3.57,0,0,0,591.76-295.54Zm45.81,2.09a1.57,1.57,0,0,0-2.47-1.25,14.74,14.74,0,0,0-5,4.11,2.14,2.14,0,0,0,1.75,3.33C634.11-287.18,637.45-290.36,637.57-293.45Zm2.93,5.2c1.79.95,3-.12,3.53-1.64C645.06-292.93,637.43-289.87,640.5-288.25ZM197.85-247.31c-7-9-10.7-20.95-12.92-32.41-1.39-7.22-1.09-13.59-.66-22.4.06-1.17.08-1.75.14-2.92.17-3.6.16-6.81.16-9.91a98.15,98.15,0,0,1,1-17.3c.27-1.64.54-3.73.82-5.95.47-3.67,1-7.83,1.66-10.51a144,144,0,0,1,5.3-16.4c.29-.8.44-1.19.73-2,2.2-6,4.84-9,9.94-13.35,3.13-2.69,8.94-4.6,13-5.24a37.87,37.87,0,0,1,6.39-.46,31.87,31.87,0,0,1,23.65,10.89c4.25,4.67,6.76,10.65,7.47,17.78a104.83,104.83,0,0,1,.32,15.87c-.19,3.56-.69,7.08-1.23,10.8-.07.5-.11.75-.18,1.25a3.27,3.27,0,0,0,1.29,3,4.16,4.16,0,0,0,3.54.74,70.75,70.75,0,0,1,20-2c21.6.86,43.69,15.83,47.82,37.85a59.94,59.94,0,0,1-10.64,46.5c-9,12-24.17,19-38.24,21.2-10.91,1.7-22.51,2.38-33.69.82C226.21-223.85,208.39-233.76,197.85-247.31Zm95.41-67.07a2.25,2.25,0,0,0,2.51-1.54c.34-1.42-1.9-3.48-3.54-3.16a3.87,3.87,0,0,0-2.48,1.9C289.26-316,291.18-314.46,293.26-314.38Zm-26.13-4.71a3.83,3.83,0,0,0,3.3-.42c1.61-1.05,3-1.66,4.94-.83a9.31,9.31,0,0,0,3.82,1c4.77-1.1,1.71-3.83.8-4-3.13-.69-12.88-2.31-14.05,1.25A3.28,3.28,0,0,0,267.13-319.09Zm-19.25,43.72c-.13,5.8,3.32,9.12,9.63,9.26h0a16.08,16.08,0,0,0,3.1-.23c4.42-.8,7.15-3.69,7.32-8a9.72,9.72,0,0,0-2.06-6.49,9.79,9.79,0,0,0-7.41-3.65,10.73,10.73,0,0,0-7.43,2.5A8.91,8.91,0,0,0,247.88-275.37Zm-5.07-85.15a4.29,4.29,0,0,0-2.11,1.83c-.15.27,1,1.75,1.46,1.71C244.11-357,245.69-360.85,242.81-360.52ZM227.87-374c.32,2.29,2.25,2.51,4.17,2.28,3.19-.39,3.65,2,5.14,3.91a15.71,15.71,0,0,0,1.5,2.07c.83.66,2.09,1.27,3,.92a1.81,1.81,0,0,0,1.16-1.93c-.11-3.65-2.13-6.41-5-8.4C236.32-376.14,228.23-379.91,227.87-374Zm203,125.22a7.36,7.36,0,0,1,1.75,7.35c-2.52,8-7.89,14.37-15.94,18.92a80.82,80.82,0,0,1-15.59,7,37.72,37.72,0,0,1-13.3,1.55h-.1c-8.77-.42-19.81-2.87-27.62-7.3a64.45,64.45,0,0,1-18.12-14.72c-6.25-7.56-10-16.05-10.94-24.55a79.61,79.61,0,0,1,.19-13.89c.19-2.6.39-5.3.44-7.95.14-8.29,4-15.79,7.71-22,7.67-12.94,21.45-22.49,36.57-24.06a93.78,93.78,0,0,1,15.24-.52,65.77,65.77,0,0,1,23,5.59c7.54,3.37,13.54,7.73,17.83,12.94,4.47,5.43,7.08,12.24,8,20.79.94,9-.57,15.39-4.86,20.78-2.94,3.69-7,6.17-12.35,7.58a45.35,45.35,0,0,1-23.09-.26,1.88,1.88,0,0,0-2,.58,1.36,1.36,0,0,0,.45,1.95l.1.05c.9.48,1.79,1,2.68,1.47a53.76,53.76,0,0,0,6.25,3.16,31.76,31.76,0,0,0,15.42,2.56A9.86,9.86,0,0,1,430.83-248.74Zm-22.48-66.9c3.06,0,1.83-3.48.14-3.48S405.29-315.64,408.35-315.64ZM387.47-323c0,1.62,1.37,2.21,3.38,2.2,4,0,8.36-.94,11.36,3.12.27.37,2.1.16,2.68-.35a3.67,3.67,0,0,0-1-5.86c-3-1.32-6-2.57-9.11-3.67S387.47-326.21,387.47-323Zm8.9,52.13a7.69,7.69,0,0,0,3.69-2.25h0a9.35,9.35,0,0,0,2.22-5.79,10.25,10.25,0,0,0-1.61-6.66,8.16,8.16,0,0,0-.79-1l-.06-.07a8.55,8.55,0,0,0-5.62-2.35,9.79,9.79,0,0,0-5.69,1.42,8.61,8.61,0,0,0-1.08.74,9.45,9.45,0,0,0-.75.67,9.08,9.08,0,0,0-2.75,6,9.06,9.06,0,0,0,2.31,6.67,10.24,10.24,0,0,0,.75.72,9.9,9.9,0,0,0,1,.76l.64.37a10.27,10.27,0,0,0,4.11,1.13h.09A10.66,10.66,0,0,0,396.37-270.83Zm111.19,21.31c-2.11-1.85-4.62-3.76-6.86-1.44-1.56,1.61-1.77,3.62-2,5.71-.05.45-.1.91-.17,1.37-.37,2.63.36,4.89,1.13,7.29,1.08,3.37,2.2,6.86.43,12.05a1.36,1.36,0,0,0,0,.17c-1.88,13.68-20.43,14.66-21.22,14.69A72.58,72.58,0,0,1,460.68-211c-2.5-.52-5-3.58-6.89-5.81-4.1-4.93-5.1-7.41-6.91-13.24-3.14-10.1-3.28-22.3-2.47-32.76,0-.91.06-1.37.09-2.28.31-8,1.33-15.88,2.45-24a32.82,32.82,0,0,1,6.48-16.26L454-306c3.25-4.14,6.33-8.05,10.86-10.73a18.74,18.74,0,0,1,11.41-2.63c5.52.47,10.58,3.17,14.46,6a27.28,27.28,0,0,1,7.81,9.46,5.25,5.25,0,0,0,3.89,2.6,5.2,5.2,0,0,0,4.39-1.36c7.4-7.15,18.32-9,28.19-8.9a14.91,14.91,0,0,1,3,.47,11.51,11.51,0,0,1,1.13.32,18.35,18.35,0,0,1,6.39,4.27c5.19,5.4,6.92,14,5.16,25.46s-3.42,27-15.06,33.32c-.6.33-1.18.66-1.69,1C525.13-242.56,514.78-243.15,507.56-249.52ZM534.17-296c0,2.73,4.42,1.48,3.84-.27S534.17-298.68,534.17-296Zm-4.38-2c1.46-.65,0-3.36-1-4.35a3.6,3.6,0,0,0-3-.42C524.22-302.16,523.75-294.88,529.79-297.92Zm-45.14-9.55a16,16,0,0,0-10.31-4.24c-1.07-.06-2.72.18-3.13.86-.85,1.39-.26,2.81,1.25,3.87C488-298.56,486.32-305.95,484.65-307.47ZM675.87-166.93l-.21-1.39c-.86-5.75-1.23-8.13,1.34-13.85a60.7,60.7,0,0,0,2.12-5.71,52.94,52.94,0,0,1,2.32-6.11,86.19,86.19,0,0,1,4.66-8.1c.8-1.29,1.63-2.62,2.49-4.06a1,1,0,0,0-.16-1.13l-1.08-1.19c-.92-1-1.9-2.08-2.89-3.14-5.11-5.46-10.43-11.1-13.73-18-.57-1.18-1.12-2.37-1.67-3.55-1-2.11-2-4.28-3.09-6.39-3.11-6-3-12.59-2.91-18.92,0-.89,0-1.79,0-2.69a50.9,50.9,0,0,1,.81-10.93c1.38-6.06,2.8-12.33,5.94-17.65,4-6.8,12.34-10.23,20.87-9a26,26,0,0,1,4.52,1.12c9.87,3.31,18,11.08,19.68,21.69.39,2.55,0,9.3-.32,14.72-.31,5.17-.47,8.15-.24,9.08.65,2.64,2,3.57,3,3.88s2.54.32,4.51-1.28a15.94,15.94,0,0,0,4.47-5.7c1.12-2.48,1.09-4.85,1.06-7.35a23.26,23.26,0,0,1,3.73-14.13c6.1-10,18.25-9.55,27.92-6.33a7.22,7.22,0,0,1,2.43,1.28l.1.08c21.86,15.87,5.51,45.16-5.57,62.77a45.32,45.32,0,0,0-3.21,5.51c-2.22,5.57-5.6,10.63-8.86,15.52-1.11,1.66-2.21,3.31-3.27,5-2.66,4.2-5.73,8.27-8.7,12.22-2.4,3.19-4.87,6.49-7.11,9.86-3.2,4.8-6.31,7-10.24,9.71-1.41,1-2.87,2-4.5,3.27-6,4.57-11.35,6.41-17,5.78C683.53-153.06,677.09-158.62,675.87-166.93Zm72.71-105.51.25.38c3.21,3.88,5.63,2.88,7.59,7.87,4.68,7.58,7.18-.55,6.52-1.45-1.78-4.91-5.55-8.32-9.21-11.77-2.12-2-4.19-2-5.84-.21C746.1-275.67,747.21-274,748.58-272.44Zm-9.85,2.14a5.52,5.52,0,0,0,4.11-2.9c1.18-2-.89-3.12-2.5-2.58-1.44.48-3.28,1.22-3.87,2.4A2.22,2.22,0,0,0,738.73-270.3Zm-47.29-17.91c1.12,1.36,2.69,2.34,3.89,3.64s2.18,3.1,3.54,4.36c5,3.5,5.87-2.05,4.59-5.22s-9.67-12.63-13.33-6.09C689.74-290.92,690.69-289.13,691.44-288.21ZM-249-187.73a50.88,50.88,0,0,1-13-2c-5.25-1.58-8.72-5.27-10.32-11a2.67,2.67,0,0,1,.1-.76,2.75,2.75,0,0,0-1.94-3.66,6.56,6.56,0,0,0-2.79-.15c-3.86.49-9,3.4-14.81,6.68-5.37,3-11.55,6.47-17,8.31-31.05,10.39-61.36-6.29-78.14-32.45A66,66,0,0,1-397.16-261c.06-1.61.08-3.29.12-5a23.11,23.11,0,0,1,1-5c.07.08,2.57.41,2.64.49a47,47,0,0,0,3.77,4,3.26,3.26,0,0,0,3.05.73c1.77-.4,1.48-1.93,2.19-3.87.79-2.12,1.64-3.74,2.55-6,.11-.26,4.15-6.53,4.25-6.8.89,1.9-.25,9,1.7,10.09a72.55,72.55,0,0,1,.62-25.28L-341.89-333c1.48-.39,3-.73,4.64-1a9,9,0,0,1,6.66-5.91l.8-.16c18.76-4.1,39.5-3.08,56.88,5.52a31.41,31.41,0,0,1,16.7,20.49c2.87,11.23-1.78,24.75-14,28a48.23,48.23,0,0,1-18.51,1.1c-1.32-.16-2.64-.36-3.95-.55-4.65-.69-9.48-1.39-14.49-.66,0,0-27.76,13.95-12.69,34.52,4.51,6.16,12.91,8,21.2,5.36,5.35-1.69,7.9-3.64,7.55-5.81-.26-1.65-2.25-2-4.36-2.42s-4.56-.85-5.38-2.51c-2.43-4.87-1.1-9.28,3.59-11.78a47.29,47.29,0,0,1,12.41-4.76,143.73,143.73,0,0,1,34.84-3c8.43.32,14.38,4.48,17.55,12,3.29,7.8,5.16,16.41,6,27,.75,9.41,1.31,19,1.36,28.47a20.34,20.34,0,0,1-7,15.33A24.33,24.33,0,0,1-249-187.73ZM-286.12-325c4.9,1.77,6.4,5.9,7.71,10.19a7,7,0,0,0,7.62,5.15,7.59,7.59,0,0,0,6.81-7c-.44-1.33-.58-2.87-1.37-3.93a38.81,38.81,0,0,0-17-13.09,4.66,4.66,0,0,0-6,2.62A4.43,4.43,0,0,0-286.12-325Zm-15.43-9.66c.06,1.66.83,3.35,3.12,3.31,2.08,0,3.17-1,3.27-3-.06-2.1-1.14-3-3.08-3S-301.62-336.49-301.55-334.62Zm53.78,89.06a4.29,4.29,0,0,0,3.09,2.36,4.73,4.73,0,0,0,3.59-1.54c2.49-3.21-1.9-13.2-3.73-17.21a8,8,0,0,0-8.74-4.79,7.84,7.84,0,0,0-6.37,7.29,7.75,7.75,0,0,0,5.77,7.75C-251-250.71-248.7-249-247.77-245.56ZM-14.5-218.64c-3.46.86-7.22,1.45-10.83,2-1.67.24-3.34.48-5,.77-1.18,0-2.38-.07-3.51-.06-9.44.12-21.56-.71-30.38-4.6-14-6.16-24.29-19.29-29-33.65-2.42-7.38-2-15.34-1.76-22.29.5-12.25,6.16-23.56,14.78-32.12,8-7.94,18.73-12.63,29.58-15a107.16,107.16,0,0,1,16.93-2.41,89.59,89.59,0,0,1,24.95,2.19c16,3.65,30,16.52,34.93,31.39,5.14,15.4,5,28.76-.69,43.93C19.51-232.6,2-222.74-14.5-218.64ZM-20-267.23a9.43,9.43,0,0,0-3.38-6.95,8.92,8.92,0,0,0-1.89-1.17,10.43,10.43,0,0,0-2-.68,11.52,11.52,0,0,0-3.12-.28h0c-5.68.33-9.92,4.62-9.65,9.75a9.45,9.45,0,0,0,1.86,5.5,7.55,7.55,0,0,0,1.11,1.15,8.39,8.39,0,0,0,3,1.51,13.88,13.88,0,0,0,4.56.45h.06C-23.43-258.31-19.69-261.95-20-267.23Zm23.3-38.71a18.5,18.5,0,0,0-4.72-4.78c-4.89-3.23-19.76-12.44-20.93-4-.57,2.7.29,3.87,3.88,4.38,6.59.94,12.73,2.63,17.63,7.5a3.12,3.12,0,0,0,3.05,0C3-303.49,3.73-305.38,3.33-305.94ZM7-301.5c-2.49,0-1.88,3.55-.19,3.81C9.11-297.43,9.51-301.5,7-301.5Zm-228.88,60.44c-4.84-16.79-4.64-35.71,6.32-51,7.48-10.45,19.41-17.25,31.7-20.65,4-1.09,8.09-1.93,11.09-2.51,1.06-.2,2-.38,2.72-.54,11.45-.55,23.46-1.53,34.52,2.1a51.69,51.69,0,0,1,31.08,28.74c5.44,13,6.45,28.07,1.76,41.63a57.44,57.44,0,0,1-41.52,36.89c-19.78,4.35-37.54,2.2-55.61-7.2C-210.22-219-218.64-229.83-221.87-241.06Zm103.49-35.37a3.14,3.14,0,0,0,2.21,2.22c4.61-2.11.82-4.53-.07-4.44S-118.43-277.18-118.38-276.43Zm-31.69-24.84c1,2.29,3,3.73,5.24,3.5,4.36-.47,7.5,1.69,10.8,3.79,1.52,1,3.08,1.86,4.64,2.77a31.25,31.25,0,0,1,4.35,2.9c1.09.93,2.07,1.68,3.07,1.68a2.33,2.33,0,0,0,1.49-.6c1.42-1.16-.75-4.75-1.45-5.83l-6.17-6.67c-8.27-10.49-15.65-9.29-18.52-8.25a5.17,5.17,0,0,0-1,.42,1.57,1.57,0,0,0-.3.2,7.18,7.18,0,0,0-.94.75A4.43,4.43,0,0,0-150.07-301.27Zm-19.66,44.8a10.77,10.77,0,0,0,1,3.79c1.61,3.25,5,4.83,9.61,4.4h.09a14.71,14.71,0,0,0,2-.31c4.91-1.11,7.77-4.5,7.42-9.08a9.88,9.88,0,0,0-2.63-6.14,10.1,10.1,0,0,0-.84-.76,8.7,8.7,0,0,0-1.76-1.11,8.65,8.65,0,0,0-1-.42l-.57-.18a10.49,10.49,0,0,0-1.52-.31l-.21,0a11,11,0,0,0-2,0,11.06,11.06,0,0,0-7.23,3.37A8.76,8.76,0,0,0-169.73-256.47Zm287.34,121.6c-.45,4.86-1.48,11.12-5.59,16.4a13.92,13.92,0,0,1-11.26,5.38A17,17,0,0,1,91.3-116a6.36,6.36,0,0,1-3-4.73,4.21,4.21,0,0,0-.11-.58,1.92,1.92,0,0,0-1.6-1.45l-.29,0a2,2,0,0,0-1.66.94c-3.3,5.55-8.73,8.37-17.09,8.88-1.39.09-2.65.13-3.86.13a31.31,31.31,0,0,1-9.25-1.2c-6-1.81-10.18-5-12.44-9.53-1.51-3-2.77-6.3-4-9.44l0-.07-.24-.63-.24-.61a8.47,8.47,0,0,1-.6-3c0-1.37,0-2.75-.08-4.09a68.39,68.39,0,0,1,.24-10.73c1.11-8.49,4.83-15,11.07-19.47A26.07,26.07,0,0,1,62-176.39c1.45-.08,3-.15,4.57-.15a33.17,33.17,0,0,1,5,.33,15.8,15.8,0,0,1,10.38,5.63,2.93,2.93,0,0,0,2.3,1.1h.23a2.94,2.94,0,0,0,2.31-1.45,13.43,13.43,0,0,1,10.37-7.19,18.65,18.65,0,0,1,2.32-.17,13.16,13.16,0,0,1,10.24,4.85c4,4.49,5.6,10,6.64,14.76A78,78,0,0,1,117.61-134.87ZM70.52-172.71a19.45,19.45,0,0,0,7.7,2.87c1.06-1.38.57-2.26-.43-3.17a9.63,9.63,0,0,0-6.15-2.53c-.63,0-1.62.11-1.87.52C69.27-174.19,69.62-173.34,70.52-172.71Zm14.93,29.16A6.19,6.19,0,0,0,83.53-148a5.93,5.93,0,0,0-4-1.54h-.24a6,6,0,0,0-5.91,6A6,6,0,0,0,75-139.18a5.81,5.81,0,0,0,4.11,1.43h.22A6.53,6.53,0,0,0,84-139.51,5.42,5.42,0,0,0,85.45-143.55ZM9.83-91.33c-.28-1-.4-1.58-.85-3.77l-.07-.38-.08-.36a2.1,2.1,0,0,0-1.3-1.64,2.16,2.16,0,0,0-.81-.14C5-97.62,2.63-96-.8-93.45c-2.12,1.55-4.52,3.32-5.84,3.68a38.78,38.78,0,0,1-10.27,1.38c-15.44,0-28.56-8.46-33.42-21.56-5-13.49-5.21-27.63-.55-38.79a44,44,0,0,1,29.36-25.21,48.69,48.69,0,0,1,11.77-1.34,45.54,45.54,0,0,1,16.34,2.73,35.71,35.71,0,0,1,11,6.72c4.8,4.41,6.18,12.88,3,18.5-1.7,3-4.56,4.71-8.77,5.23a19.73,19.73,0,0,1-2.44.15,28.37,28.37,0,0,1-8.16-1.35c-.81-.24-1.64-.56-2.44-.88a15.48,15.48,0,0,0-5.65-1.42,7.88,7.88,0,0,0-1.2.09c-4.33.64-9.57,3.65-10.75,8-1.23,4.5.16,10.43,2.17,14,1.84,3.24,6.64,5.5,11.68,5.5a16.29,16.29,0,0,0,4.2-.54,2.76,2.76,0,0,0,.62-.3,2.59,2.59,0,0,1,.35-.19,1.58,1.58,0,0,0,1.29-1.52,2.21,2.21,0,0,0-1-2.21c-1.87-1.21-3.92-3-4.23-4.11-.75-2.65.05-4.64,2.25-5.61a28.45,28.45,0,0,1,7.93-2.34,85.94,85.94,0,0,1,9.65-.62,49.48,49.48,0,0,1,8.26.65c4.44.73,7.22,2.94,8.25,6.55A64.52,64.52,0,0,1,35-116.72a123.74,123.74,0,0,1,0,22c-.27,3.08-2.73,6.37-6.27,8.37a15.47,15.47,0,0,1-7.75,2,18.8,18.8,0,0,1-8-1.86A8.86,8.86,0,0,1,9.83-91.33Zm16.86-34.24c0,1,1.2,1.59,2,1.66,2,.15,2-1,2-2.36s-1.66-1.52-2.29-1.39A1.82,1.82,0,0,0,26.69-125.57Zm-11.4-27.56a3.76,3.76,0,0,0,.47,2.9A2.27,2.27,0,0,0,19-151.76C19.5-153.57,18-156.86,15.29-153.13ZM5.77-162c1.42,2.07,2.9,4.08,4.41,6.07a2.63,2.63,0,0,0,3.81.7,5.31,5.31,0,0,0,2.32-4.6c0-3.65-4.86-7.55-8.57-6.78A3,3,0,0,0,5.77-162Zm-23.16-4.28c11.54-2,14,1.09,15.68.09a2.26,2.26,0,0,0,1.08-3.08,3.35,3.35,0,0,0-1.82-2.07,27.53,27.53,0,0,0-10.66-.33,23.44,23.44,0,0,0-5.82,1.94,1.83,1.83,0,0,0-.87,2.69A2.78,2.78,0,0,0-17.39-166.3ZM17-126.21a38.79,38.79,0,0,1,5.09.67c1.52.17,1.82-.12,2.26-1.82.24-1,0-4.62-9-4.45-2.61.44-5.12.84-7.62,1.31a3.36,3.36,0,0,0-1.4.78,2.55,2.55,0,0,0-.53,3.19,2.36,2.36,0,0,0,2.65,1A85.29,85.29,0,0,1,17-126.21ZM369.7-149.83a2.1,2.1,0,0,0-.14,2.76c.41.53.8,1.06,1.14,1.55,1.87,2.72,6.71,6.73,11,10.27l.33.28c2,1.68,4.33,3.59,5.64,4.86a24.36,24.36,0,0,1,5.77,7.85,18.26,18.26,0,0,1,1.26,10.7,25.94,25.94,0,0,1-3.66,9.94,25.41,25.41,0,0,1-5.74,6.07,37,37,0,0,1-10.77,5.31A42.46,42.46,0,0,1,360.72-88c-1,0-2,0-3-.09l-.36,0-2.81-.18-.38,0c-4.09-.25-8.31-.51-12.39-1.09A57.37,57.37,0,0,1,330-92.32a25.7,25.7,0,0,1-9.89-6,16,16,0,0,1-3.81-6.21,12.51,12.51,0,0,1-.21-6.63,15.17,15.17,0,0,1,5.07-8.88,4.84,4.84,0,0,1,3.17-1.24h.25a15.16,15.16,0,0,1,4.66,1.39c.39.17.79.33,1.19.48,2.38,1,4.78,2,6.84,2.92l.35.16.12,0a1.64,1.64,0,0,0,.67.14,3.9,3.9,0,0,0,2-.75,5,5,0,0,0,2.28-4.47c-.26-2.53-2.66-4.82-7.15-6.79-11.5-5-14.65-18.88-14.41-21.32a1.42,1.42,0,0,0,0-.3c-.65-3.58.47-6.83,2.34-10.62s3.85-7.45,6.9-9.93a12,12,0,0,1,3-1.53l.54-.22.54-.22a34.43,34.43,0,0,1,9.84-2.94c1.35-.13,2.71-.31,4-.48,1.79-.23,3.79-.49,5.7-.58s4-.2,6.19-.2a44.91,44.91,0,0,1,4.88.23,122.79,122.79,0,0,1,15.64,2.63,26.4,26.4,0,0,1,10.5,4.83c3,2.45,6.14,7,5.75,11.15a27.47,27.47,0,0,1-1.16,6.61c-.86,2.42-2.84,4.39-5.89,5.84a6.86,6.86,0,0,1-2.94.54,24.08,24.08,0,0,1-11.31-3.5c-1-.63-2-1.28-3.17-2a2.23,2.23,0,0,0-1.17-.33A2.16,2.16,0,0,0,369.7-149.83Zm6.53-16.58c.79.69,1.81,1.11,2.65,1.76s1.58,1.61,2.5,2.23c1.53,1,3,.11,3.06-2.12a3.08,3.08,0,0,0-.57-1.37,14.14,14.14,0,0,0-6.53-3.71.46.46,0,0,0-.31,0c-.67.43-1.62.76-1.89,1.38C375-167.84,375.7-166.88,376.23-166.41ZM310.3-120.28c-1.58,3.17-4.34,3.7-8.18,4.42l-.56.11-.87.17a85.73,85.73,0,0,1-13.19,1.13,63.72,63.72,0,0,1-23.26-4.49c-8.87-3.33-14-9.43-15.68-18.66a37.79,37.79,0,0,1,9.4-32.62,30.8,30.8,0,0,1,19.54-9.46c1.91-.13,3.53-.18,5.1-.18.68,0,1.36,0,2,0A40,40,0,0,1,295.52-178a26,26,0,0,1,17.39,20c.69,3.63,1.08,7.51-.71,11.21-2.1,4.36-6,6.84-11.68,7.37-.76.07-1.57.1-2.46.1-1.5,0-3.1-.1-4.61-.21h-.17a2.2,2.2,0,0,0-2.15,1.64,2.17,2.17,0,0,0,1.22,2.56,28.46,28.46,0,0,0,6.46,1.93c1.68.34,3.66.72,5.67,1,3,.47,5.15,1.8,6.24,3.85C311.91-126.3,311.76-123.21,310.3-120.28Zm-15-48.52c0-.06,4.13,2.13,5.34,4,2.31,4.16,8.15-1-2.87-7.51-1.44-1-2.66-.78-3.45.43C293.42-170.48,294.3-169.6,295.29-168.8Zm-7.7-4.59c.49.5,1.43.55,2.57.94,2.46.4,1.59-2,.5-2.41a4,4,0,0,0-2.61-.76A1.33,1.33,0,0,0,287.59-173.39Zm2.22,27.95a5.22,5.22,0,0,0,1.8-3.78c.1-3.12-2.79-6.61-5.63-6.79h-.35a6.24,6.24,0,0,0-4,1.53,6,6,0,0,0-2.06,4.18,5.34,5.34,0,0,0,1.18,4.13,6.67,6.67,0,0,0,4.64,2.14l.27,0h.24A6,6,0,0,0,289.81-145.44ZM238-160.7c2.25,7.14,2.87,15.17,1.91,24.55l0,.52-.05.52c-.35,3.47-.7,7.06-2.14,10.29-1.62,3.67-5,6.36-10.74,8.47a18.37,18.37,0,0,1-6.39,1.25c-5.52,0-9.89-3.09-12.64-8.94a32.92,32.92,0,0,1-2.56-8.11,2.06,2.06,0,0,0-2-1.7h-.07a2.11,2.11,0,0,0-2.06,1.55,35.81,35.81,0,0,1-3.31,8.36c-2.9,5.18-7.48,7.54-15.29,7.9-.75,0-1.42,0-2.06,0-6,0-9.62-1.64-12.55-5.66-1.47-2-3-5.67-4.55-10.54A2.56,2.56,0,0,0,161-134h-.12a2.53,2.53,0,0,0-2.41,2,35.81,35.81,0,0,1-2.4,7.48,11.75,11.75,0,0,1-7.43,6.73,31.76,31.76,0,0,1-9.09,1.58c-5.55,0-9.3-2.34-11.49-7.17a27.66,27.66,0,0,1-2.25-8.43c-1.17-11.25-.28-22.32,2.44-30.38,1.68-5,4.17-10.48,9.85-13.38a32.37,32.37,0,0,1,14.59-3.55,27.8,27.8,0,0,1,21.41,9.64,39.67,39.67,0,0,1,7.29,12.57,1.13,1.13,0,0,0,1,.74,1.12,1.12,0,0,0,1.06-.73,35.16,35.16,0,0,1,9.66-14.49,27,27,0,0,1,18.3-7,31.89,31.89,0,0,1,4.21.28,31.53,31.53,0,0,1,12.18,3.76C232.67-171.53,236-167.06,238-160.7Zm-72.93-10a9.63,9.63,0,0,0-6.15-2.53c-.64,0-1.62.11-1.87.52-.5.83-.15,1.68.75,2.31a19.45,19.45,0,0,0,7.7,2.87C167.05-167.72,166.07-169.79,165.07-170.7Zm59.12,1.81a7.71,7.71,0,0,0-6.51-5.1c-2,0-2.86,1.18-2.05,3a7.87,7.87,0,0,0,6.1,4.64A2.14,2.14,0,0,0,224.19-168.89Z"/><g class="cls-8"><use class="cls-9" transform="matrix(-0.53, -0.06, 0.07, -0.63, 864.59, 822.27)" xlink:href="#image"/></g><g class="cls-10"><use class="cls-11" transform="matrix(-0.53, -0.06, 0.07, -0.63, 670.23, 705.69)" xlink:href="#image"/></g></g></g></svg>